G04 #@! TF.GenerationSoftware,KiCad,Pcbnew,7.0.1-0*
G04 #@! TF.CreationDate,2025-03-17T17:28:38+01:00*
G04 #@! TF.ProjectId,LED-Controller,4c45442d-436f-46e7-9472-6f6c6c65722e,rev?*
G04 #@! TF.SameCoordinates,Original*
G04 #@! TF.FileFunction,AssemblyDrawing,Bot*
%FSLAX46Y46*%
G04 Gerber Fmt 4.6, Leading zero omitted, Abs format (unit mm)*
G04 Created by KiCad (PCBNEW 7.0.1-0) date 2025-03-17 17:28:38*
%MOMM*%
%LPD*%
G01*
G04 APERTURE LIST*
%ADD10C,0.150000*%
%ADD11C,0.120000*%
%ADD12C,0.114000*%
%ADD13C,0.100000*%
G04 APERTURE END LIST*
D10*
G04 #@! TO.C,U4*
X162213771Y-121706619D02*
X162689961Y-121706619D01*
X162689961Y-121706619D02*
X162689961Y-120706619D01*
X161880437Y-121706619D02*
X161880437Y-120706619D01*
X161880437Y-120706619D02*
X161642342Y-120706619D01*
X161642342Y-120706619D02*
X161499485Y-120754238D01*
X161499485Y-120754238D02*
X161404247Y-120849476D01*
X161404247Y-120849476D02*
X161356628Y-120944714D01*
X161356628Y-120944714D02*
X161309009Y-121135190D01*
X161309009Y-121135190D02*
X161309009Y-121278047D01*
X161309009Y-121278047D02*
X161356628Y-121468523D01*
X161356628Y-121468523D02*
X161404247Y-121563761D01*
X161404247Y-121563761D02*
X161499485Y-121659000D01*
X161499485Y-121659000D02*
X161642342Y-121706619D01*
X161642342Y-121706619D02*
X161880437Y-121706619D01*
X160880437Y-121706619D02*
X160880437Y-120706619D01*
X159880438Y-121706619D02*
X160451866Y-121706619D01*
X160166152Y-121706619D02*
X160166152Y-120706619D01*
X160166152Y-120706619D02*
X160261390Y-120849476D01*
X160261390Y-120849476D02*
X160356628Y-120944714D01*
X160356628Y-120944714D02*
X160451866Y-120992333D01*
X158928057Y-121706619D02*
X159499485Y-121706619D01*
X159213771Y-121706619D02*
X159213771Y-120706619D01*
X159213771Y-120706619D02*
X159309009Y-120849476D01*
X159309009Y-120849476D02*
X159404247Y-120944714D01*
X159404247Y-120944714D02*
X159499485Y-120992333D01*
X157975676Y-121706619D02*
X158547104Y-121706619D01*
X158261390Y-121706619D02*
X158261390Y-120706619D01*
X158261390Y-120706619D02*
X158356628Y-120849476D01*
X158356628Y-120849476D02*
X158451866Y-120944714D01*
X158451866Y-120944714D02*
X158547104Y-120992333D01*
X157642342Y-120706619D02*
X156975676Y-120706619D01*
X156975676Y-120706619D02*
X157404247Y-121706619D01*
X156594723Y-121325666D02*
X155832819Y-121325666D01*
X155166152Y-120706619D02*
X155070914Y-120706619D01*
X155070914Y-120706619D02*
X154975676Y-120754238D01*
X154975676Y-120754238D02*
X154928057Y-120801857D01*
X154928057Y-120801857D02*
X154880438Y-120897095D01*
X154880438Y-120897095D02*
X154832819Y-121087571D01*
X154832819Y-121087571D02*
X154832819Y-121325666D01*
X154832819Y-121325666D02*
X154880438Y-121516142D01*
X154880438Y-121516142D02*
X154928057Y-121611380D01*
X154928057Y-121611380D02*
X154975676Y-121659000D01*
X154975676Y-121659000D02*
X155070914Y-121706619D01*
X155070914Y-121706619D02*
X155166152Y-121706619D01*
X155166152Y-121706619D02*
X155261390Y-121659000D01*
X155261390Y-121659000D02*
X155309009Y-121611380D01*
X155309009Y-121611380D02*
X155356628Y-121516142D01*
X155356628Y-121516142D02*
X155404247Y-121325666D01*
X155404247Y-121325666D02*
X155404247Y-121087571D01*
X155404247Y-121087571D02*
X155356628Y-120897095D01*
X155356628Y-120897095D02*
X155309009Y-120801857D01*
X155309009Y-120801857D02*
X155261390Y-120754238D01*
X155261390Y-120754238D02*
X155166152Y-120706619D01*
X153928057Y-120706619D02*
X154404247Y-120706619D01*
X154404247Y-120706619D02*
X154451866Y-121182809D01*
X154451866Y-121182809D02*
X154404247Y-121135190D01*
X154404247Y-121135190D02*
X154309009Y-121087571D01*
X154309009Y-121087571D02*
X154070914Y-121087571D01*
X154070914Y-121087571D02*
X153975676Y-121135190D01*
X153975676Y-121135190D02*
X153928057Y-121182809D01*
X153928057Y-121182809D02*
X153880438Y-121278047D01*
X153880438Y-121278047D02*
X153880438Y-121516142D01*
X153880438Y-121516142D02*
X153928057Y-121611380D01*
X153928057Y-121611380D02*
X153975676Y-121659000D01*
X153975676Y-121659000D02*
X154070914Y-121706619D01*
X154070914Y-121706619D02*
X154309009Y-121706619D01*
X154309009Y-121706619D02*
X154404247Y-121659000D01*
X154404247Y-121659000D02*
X154451866Y-121611380D01*
X153451866Y-121706619D02*
X153451866Y-120706619D01*
X153451866Y-121182809D02*
X152880438Y-121182809D01*
X152880438Y-121706619D02*
X152880438Y-120706619D01*
D11*
X157355295Y-125134476D02*
X158002914Y-125134476D01*
X158002914Y-125134476D02*
X158079104Y-125172571D01*
X158079104Y-125172571D02*
X158117200Y-125210666D01*
X158117200Y-125210666D02*
X158155295Y-125286857D01*
X158155295Y-125286857D02*
X158155295Y-125439238D01*
X158155295Y-125439238D02*
X158117200Y-125515428D01*
X158117200Y-125515428D02*
X158079104Y-125553523D01*
X158079104Y-125553523D02*
X158002914Y-125591619D01*
X158002914Y-125591619D02*
X157355295Y-125591619D01*
X157621961Y-126315428D02*
X158155295Y-126315428D01*
X157317200Y-126124952D02*
X157888628Y-125934475D01*
X157888628Y-125934475D02*
X157888628Y-126429714D01*
D12*
G04 #@! TO.C,J16*
X166672790Y-110890761D02*
X167215647Y-110890761D01*
X167215647Y-110890761D02*
X167324219Y-110854570D01*
X167324219Y-110854570D02*
X167396600Y-110782189D01*
X167396600Y-110782189D02*
X167432790Y-110673618D01*
X167432790Y-110673618D02*
X167432790Y-110601237D01*
X167432790Y-111650761D02*
X167432790Y-111216475D01*
X167432790Y-111433618D02*
X166672790Y-111433618D01*
X166672790Y-111433618D02*
X166781361Y-111361237D01*
X166781361Y-111361237D02*
X166853742Y-111288856D01*
X166853742Y-111288856D02*
X166889933Y-111216475D01*
X166672790Y-112302190D02*
X166672790Y-112157428D01*
X166672790Y-112157428D02*
X166708980Y-112085047D01*
X166708980Y-112085047D02*
X166745171Y-112048857D01*
X166745171Y-112048857D02*
X166853742Y-111976476D01*
X166853742Y-111976476D02*
X166998504Y-111940285D01*
X166998504Y-111940285D02*
X167288028Y-111940285D01*
X167288028Y-111940285D02*
X167360409Y-111976476D01*
X167360409Y-111976476D02*
X167396600Y-112012666D01*
X167396600Y-112012666D02*
X167432790Y-112085047D01*
X167432790Y-112085047D02*
X167432790Y-112229809D01*
X167432790Y-112229809D02*
X167396600Y-112302190D01*
X167396600Y-112302190D02*
X167360409Y-112338381D01*
X167360409Y-112338381D02*
X167288028Y-112374571D01*
X167288028Y-112374571D02*
X167107076Y-112374571D01*
X167107076Y-112374571D02*
X167034695Y-112338381D01*
X167034695Y-112338381D02*
X166998504Y-112302190D01*
X166998504Y-112302190D02*
X166962314Y-112229809D01*
X166962314Y-112229809D02*
X166962314Y-112085047D01*
X166962314Y-112085047D02*
X166998504Y-112012666D01*
X166998504Y-112012666D02*
X167034695Y-111976476D01*
X167034695Y-111976476D02*
X167107076Y-111940285D01*
D10*
G04 #@! TO.C,U3*
X159006704Y-105517019D02*
X158340038Y-105517019D01*
X158340038Y-105517019D02*
X158768609Y-106517019D01*
X157530514Y-105850352D02*
X157530514Y-106517019D01*
X157768609Y-105469400D02*
X158006704Y-106183685D01*
X158006704Y-106183685D02*
X157387657Y-106183685D01*
X157006704Y-106517019D02*
X157006704Y-105517019D01*
X157006704Y-105993209D02*
X156435276Y-105993209D01*
X156435276Y-106517019D02*
X156435276Y-105517019D01*
X155387657Y-106421780D02*
X155435276Y-106469400D01*
X155435276Y-106469400D02*
X155578133Y-106517019D01*
X155578133Y-106517019D02*
X155673371Y-106517019D01*
X155673371Y-106517019D02*
X155816228Y-106469400D01*
X155816228Y-106469400D02*
X155911466Y-106374161D01*
X155911466Y-106374161D02*
X155959085Y-106278923D01*
X155959085Y-106278923D02*
X156006704Y-106088447D01*
X156006704Y-106088447D02*
X156006704Y-105945590D01*
X156006704Y-105945590D02*
X155959085Y-105755114D01*
X155959085Y-105755114D02*
X155911466Y-105659876D01*
X155911466Y-105659876D02*
X155816228Y-105564638D01*
X155816228Y-105564638D02*
X155673371Y-105517019D01*
X155673371Y-105517019D02*
X155578133Y-105517019D01*
X155578133Y-105517019D02*
X155435276Y-105564638D01*
X155435276Y-105564638D02*
X155387657Y-105612257D01*
X155006704Y-105612257D02*
X154959085Y-105564638D01*
X154959085Y-105564638D02*
X154863847Y-105517019D01*
X154863847Y-105517019D02*
X154625752Y-105517019D01*
X154625752Y-105517019D02*
X154530514Y-105564638D01*
X154530514Y-105564638D02*
X154482895Y-105612257D01*
X154482895Y-105612257D02*
X154435276Y-105707495D01*
X154435276Y-105707495D02*
X154435276Y-105802733D01*
X154435276Y-105802733D02*
X154482895Y-105945590D01*
X154482895Y-105945590D02*
X155054323Y-106517019D01*
X155054323Y-106517019D02*
X154435276Y-106517019D01*
X153578133Y-105850352D02*
X153578133Y-106517019D01*
X153816228Y-105469400D02*
X154054323Y-106183685D01*
X154054323Y-106183685D02*
X153435276Y-106183685D01*
X152578133Y-105517019D02*
X153054323Y-105517019D01*
X153054323Y-105517019D02*
X153101942Y-105993209D01*
X153101942Y-105993209D02*
X153054323Y-105945590D01*
X153054323Y-105945590D02*
X152959085Y-105897971D01*
X152959085Y-105897971D02*
X152720990Y-105897971D01*
X152720990Y-105897971D02*
X152625752Y-105945590D01*
X152625752Y-105945590D02*
X152578133Y-105993209D01*
X152578133Y-105993209D02*
X152530514Y-106088447D01*
X152530514Y-106088447D02*
X152530514Y-106326542D01*
X152530514Y-106326542D02*
X152578133Y-106421780D01*
X152578133Y-106421780D02*
X152625752Y-106469400D01*
X152625752Y-106469400D02*
X152720990Y-106517019D01*
X152720990Y-106517019D02*
X152959085Y-106517019D01*
X152959085Y-106517019D02*
X153054323Y-106469400D01*
X153054323Y-106469400D02*
X153101942Y-106421780D01*
X152101942Y-106517019D02*
X152101942Y-105517019D01*
X152101942Y-105517019D02*
X151863847Y-105517019D01*
X151863847Y-105517019D02*
X151720990Y-105564638D01*
X151720990Y-105564638D02*
X151625752Y-105659876D01*
X151625752Y-105659876D02*
X151578133Y-105755114D01*
X151578133Y-105755114D02*
X151530514Y-105945590D01*
X151530514Y-105945590D02*
X151530514Y-106088447D01*
X151530514Y-106088447D02*
X151578133Y-106278923D01*
X151578133Y-106278923D02*
X151625752Y-106374161D01*
X151625752Y-106374161D02*
X151720990Y-106469400D01*
X151720990Y-106469400D02*
X151863847Y-106517019D01*
X151863847Y-106517019D02*
X152101942Y-106517019D01*
X156006704Y-98167019D02*
X156006704Y-98976542D01*
X156006704Y-98976542D02*
X155959085Y-99071780D01*
X155959085Y-99071780D02*
X155911466Y-99119400D01*
X155911466Y-99119400D02*
X155816228Y-99167019D01*
X155816228Y-99167019D02*
X155625752Y-99167019D01*
X155625752Y-99167019D02*
X155530514Y-99119400D01*
X155530514Y-99119400D02*
X155482895Y-99071780D01*
X155482895Y-99071780D02*
X155435276Y-98976542D01*
X155435276Y-98976542D02*
X155435276Y-98167019D01*
X155054323Y-98167019D02*
X154435276Y-98167019D01*
X154435276Y-98167019D02*
X154768609Y-98547971D01*
X154768609Y-98547971D02*
X154625752Y-98547971D01*
X154625752Y-98547971D02*
X154530514Y-98595590D01*
X154530514Y-98595590D02*
X154482895Y-98643209D01*
X154482895Y-98643209D02*
X154435276Y-98738447D01*
X154435276Y-98738447D02*
X154435276Y-98976542D01*
X154435276Y-98976542D02*
X154482895Y-99071780D01*
X154482895Y-99071780D02*
X154530514Y-99119400D01*
X154530514Y-99119400D02*
X154625752Y-99167019D01*
X154625752Y-99167019D02*
X154911466Y-99167019D01*
X154911466Y-99167019D02*
X155006704Y-99119400D01*
X155006704Y-99119400D02*
X155054323Y-99071780D01*
D13*
G04 #@! TO.C,U4*
X155935200Y-122394000D02*
X159635200Y-122394000D01*
X155935200Y-128094000D02*
X155935200Y-122394000D01*
X159635200Y-129094000D02*
X159635200Y-122394000D01*
X156935200Y-129094000D02*
X159635200Y-129094000D01*
X155935200Y-128094000D02*
X156935200Y-129094000D01*
G04 #@! TO.C,U3*
X151494800Y-105104400D02*
X158994800Y-105104400D01*
X151494800Y-92304400D02*
X151494800Y-105104400D01*
X157994800Y-92304400D02*
X151494800Y-92304400D01*
X158994800Y-105104400D02*
X158994800Y-93304400D01*
X158994800Y-93304400D02*
X157994800Y-92304400D01*
G04 #@! TD*
M02*
