G04 #@! TF.GenerationSoftware,KiCad,Pcbnew,7.0.1-0*
G04 #@! TF.CreationDate,2025-03-17T17:28:38+01:00*
G04 #@! TF.ProjectId,LED-Controller,4c45442d-436f-46e7-9472-6f6c6c65722e,rev?*
G04 #@! TF.SameCoordinates,Original*
G04 #@! TF.FileFunction,Other,User*
%FSLAX46Y46*%
G04 Gerber Fmt 4.6, Leading zero omitted, Abs format (unit mm)*
G04 Created by KiCad (PCBNEW 7.0.1-0) date 2025-03-17 17:28:38*
%MOMM*%
%LPD*%
G01*
G04 APERTURE LIST*
%ADD10C,0.050000*%
G04 APERTURE END LIST*
D10*
G04 #@! TO.C,U2*
X164692400Y-123077600D02*
X157592400Y-123077600D01*
X157592400Y-128077600D02*
X164692400Y-128077600D01*
X164692400Y-123077600D02*
X164692400Y-128077600D01*
X157592400Y-128077600D02*
X157592400Y-123077600D01*
G04 #@! TO.C,SW1*
X160223200Y-121107200D02*
X162661600Y-121107200D01*
X162661600Y-121107200D02*
X162661600Y-119634000D01*
X163271200Y-119634000D02*
X162661600Y-119634000D01*
X163271200Y-119634000D02*
X163271200Y-113030000D01*
X159715200Y-119583200D02*
X160223200Y-119583200D01*
X160223200Y-119583200D02*
X160223200Y-121107200D01*
X159664400Y-113030000D02*
X159715200Y-119583200D01*
X160223200Y-113030000D02*
X159664400Y-113030000D01*
X162661600Y-113030000D02*
X162661600Y-111556800D01*
X163271200Y-113030000D02*
X162661600Y-113030000D01*
X160223200Y-111556800D02*
X160223200Y-113030000D01*
X162661600Y-111556800D02*
X160223200Y-111556800D01*
G04 #@! TO.C,SW2*
X168249600Y-84982800D02*
X165811200Y-84982800D01*
X165811200Y-84982800D02*
X165811200Y-86456000D01*
X165201600Y-86456000D02*
X165811200Y-86456000D01*
X165201600Y-86456000D02*
X165201600Y-93060000D01*
X168757600Y-86506800D02*
X168249600Y-86506800D01*
X168249600Y-86506800D02*
X168249600Y-84982800D01*
X168808400Y-93060000D02*
X168757600Y-86506800D01*
X168249600Y-93060000D02*
X168808400Y-93060000D01*
X165811200Y-93060000D02*
X165811200Y-94533200D01*
X165201600Y-93060000D02*
X165811200Y-93060000D01*
X168249600Y-94533200D02*
X168249600Y-93060000D01*
X165811200Y-94533200D02*
X168249600Y-94533200D01*
G04 #@! TO.C,R5*
X161683600Y-90660400D02*
X161683600Y-88460400D01*
X162623600Y-90660400D02*
X161683600Y-90660400D01*
X161683600Y-88460400D02*
X162623600Y-88460400D01*
X162623600Y-88460400D02*
X162623600Y-90660400D01*
G04 #@! TO.C,J22*
X168231200Y-94758000D02*
X165931200Y-94758000D01*
X165931200Y-94758000D02*
X165931200Y-96758000D01*
X168231200Y-96758000D02*
X168231200Y-94758000D01*
X165931200Y-96758000D02*
X168231200Y-96758000D01*
G04 #@! TO.C,J11*
X165982000Y-119211600D02*
X168282000Y-119211600D01*
X168282000Y-119211600D02*
X168282000Y-117211600D01*
X165982000Y-117211600D02*
X165982000Y-119211600D01*
X168282000Y-117211600D02*
X165982000Y-117211600D01*
G04 #@! TO.C,J19*
X165931200Y-100974400D02*
X168231200Y-100974400D01*
X168231200Y-100974400D02*
X168231200Y-98974400D01*
X165931200Y-98974400D02*
X165931200Y-100974400D01*
X168231200Y-98974400D02*
X165931200Y-98974400D01*
G04 #@! TO.C,J25*
X157549200Y-118246400D02*
X159849200Y-118246400D01*
X159849200Y-118246400D02*
X159849200Y-116246400D01*
X157549200Y-116246400D02*
X157549200Y-118246400D01*
X159849200Y-116246400D02*
X157549200Y-116246400D01*
G04 #@! TO.C,J24*
X157549200Y-116112800D02*
X159849200Y-116112800D01*
X159849200Y-116112800D02*
X159849200Y-114112800D01*
X157549200Y-114112800D02*
X157549200Y-116112800D01*
X159849200Y-114112800D02*
X157549200Y-114112800D01*
G04 #@! TO.C,J23*
X165931200Y-98840800D02*
X168231200Y-98840800D01*
X168231200Y-98840800D02*
X168231200Y-96840800D01*
X165931200Y-96840800D02*
X165931200Y-98840800D01*
X168231200Y-96840800D02*
X165931200Y-96840800D01*
G04 #@! TO.C,J21*
X165931200Y-107375200D02*
X168231200Y-107375200D01*
X168231200Y-107375200D02*
X168231200Y-105375200D01*
X165931200Y-105375200D02*
X165931200Y-107375200D01*
X168231200Y-105375200D02*
X165931200Y-105375200D01*
G04 #@! TO.C,J20*
X165931200Y-105241600D02*
X168231200Y-105241600D01*
X168231200Y-105241600D02*
X168231200Y-103241600D01*
X165931200Y-103241600D02*
X165931200Y-105241600D01*
X168231200Y-103241600D02*
X165931200Y-103241600D01*
G04 #@! TO.C,J18*
X168231200Y-101108000D02*
X165931200Y-101108000D01*
X165931200Y-101108000D02*
X165931200Y-103108000D01*
X168231200Y-103108000D02*
X168231200Y-101108000D01*
X165931200Y-103108000D02*
X168231200Y-103108000D01*
G04 #@! TO.C,J17*
X165880400Y-110321600D02*
X168180400Y-110321600D01*
X168180400Y-110321600D02*
X168180400Y-108321600D01*
X165880400Y-108321600D02*
X165880400Y-110321600D01*
X168180400Y-108321600D02*
X165880400Y-108321600D01*
G04 #@! TO.C,J16*
X165931200Y-112506000D02*
X168231200Y-112506000D01*
X168231200Y-112506000D02*
X168231200Y-110506000D01*
X165931200Y-110506000D02*
X165931200Y-112506000D01*
X168231200Y-110506000D02*
X165931200Y-110506000D01*
G04 #@! TO.C,J15*
X165931200Y-114690400D02*
X168231200Y-114690400D01*
X168231200Y-114690400D02*
X168231200Y-112690400D01*
X165931200Y-112690400D02*
X165931200Y-114690400D01*
X168231200Y-112690400D02*
X165931200Y-112690400D01*
G04 #@! TO.C,J14*
X165742000Y-112690400D02*
X163442000Y-112690400D01*
X163442000Y-112690400D02*
X163442000Y-114690400D01*
X165742000Y-114690400D02*
X165742000Y-112690400D01*
X163442000Y-114690400D02*
X165742000Y-114690400D01*
G04 #@! TO.C,J13*
X165982000Y-116925600D02*
X168282000Y-116925600D01*
X168282000Y-116925600D02*
X168282000Y-114925600D01*
X165982000Y-114925600D02*
X165982000Y-116925600D01*
X168282000Y-114925600D02*
X165982000Y-114925600D01*
G04 #@! TO.C,J12*
X163442000Y-116925600D02*
X165742000Y-116925600D01*
X165742000Y-116925600D02*
X165742000Y-114925600D01*
X163442000Y-114925600D02*
X163442000Y-116925600D01*
X165742000Y-114925600D02*
X163442000Y-114925600D01*
G04 #@! TO.C,J5*
X165742000Y-117211600D02*
X163442000Y-117211600D01*
X163442000Y-117211600D02*
X163442000Y-119211600D01*
X165742000Y-119211600D02*
X165742000Y-117211600D01*
X163442000Y-119211600D02*
X165742000Y-119211600D01*
G04 #@! TO.C,Q3*
X161323500Y-84964800D02*
X161323500Y-88364800D01*
X161323500Y-88364800D02*
X165163500Y-88364800D01*
X165163500Y-84964800D02*
X161323500Y-84964800D01*
X165163500Y-88364800D02*
X165163500Y-84964800D01*
G04 #@! TO.C,Q2*
X154139900Y-88364800D02*
X154139900Y-84964800D01*
X154139900Y-84964800D02*
X150299900Y-84964800D01*
X150299900Y-88364800D02*
X154139900Y-88364800D01*
X150299900Y-84964800D02*
X150299900Y-88364800D01*
G04 #@! TO.C,R9*
X153352400Y-112940300D02*
X153352400Y-110740300D01*
X154292400Y-112940300D02*
X153352400Y-112940300D01*
X153352400Y-110740300D02*
X154292400Y-110740300D01*
X154292400Y-110740300D02*
X154292400Y-112940300D01*
G04 #@! TO.C,R4*
X154246400Y-84975600D02*
X156446400Y-84975600D01*
X154246400Y-85915600D02*
X154246400Y-84975600D01*
X156446400Y-84975600D02*
X156446400Y-85915600D01*
X156446400Y-85915600D02*
X154246400Y-85915600D01*
G04 #@! TO.C,U1*
X124347000Y-124596400D02*
X145287000Y-124596400D01*
X145287000Y-124596400D02*
X145287000Y-110346400D01*
X165597000Y-110346400D02*
X145287000Y-110346400D01*
X165597000Y-110346400D02*
X165597000Y-90846400D01*
X145287000Y-90846400D02*
X165597000Y-90846400D01*
X145287000Y-90846400D02*
X145287000Y-76596400D01*
X124347000Y-76596400D02*
X124347000Y-124596400D01*
X145287000Y-76596400D02*
X124347000Y-76596400D01*
G04 #@! TO.C,J8*
X152940400Y-90662000D02*
X152940400Y-88662000D01*
X152940400Y-88662000D02*
X150640400Y-88662000D01*
X150640400Y-90662000D02*
X152940400Y-90662000D01*
X150640400Y-88662000D02*
X150640400Y-90662000D01*
G04 #@! TO.C,C1*
X156578800Y-112931200D02*
X154418800Y-112931200D01*
X156578800Y-112011200D02*
X156578800Y-112931200D01*
X154418800Y-112931200D02*
X154418800Y-112011200D01*
X154418800Y-112011200D02*
X156578800Y-112011200D01*
G04 #@! TO.C,J6*
X155630400Y-90708000D02*
X155630400Y-88108000D01*
X155630400Y-88108000D02*
X153030400Y-88108000D01*
X153030400Y-90708000D02*
X155630400Y-90708000D01*
X153030400Y-88108000D02*
X153030400Y-90708000D01*
G04 #@! TO.C,J7*
X150552800Y-90662000D02*
X150552800Y-88662000D01*
X150552800Y-88662000D02*
X148252800Y-88662000D01*
X148252800Y-90662000D02*
X150552800Y-90662000D01*
X148252800Y-88662000D02*
X148252800Y-90662000D01*
G04 #@! TO.C,J3*
X157805600Y-88108000D02*
X157805600Y-90708000D01*
X157805600Y-90708000D02*
X160405600Y-90708000D01*
X160405600Y-88108000D02*
X157805600Y-88108000D01*
X160405600Y-90708000D02*
X160405600Y-88108000D01*
G04 #@! TO.C,J1*
X152876000Y-114890800D02*
X152876000Y-115890800D01*
X148876000Y-114890800D02*
X152876000Y-114890800D01*
X155626000Y-115890800D02*
X155626000Y-117890800D01*
X152876000Y-115890800D02*
X155626000Y-115890800D01*
X148876000Y-115890800D02*
X148876000Y-114890800D01*
X146376000Y-115890800D02*
X148876000Y-115890800D01*
X146376000Y-115890800D02*
X146126000Y-115890800D01*
X146126000Y-115890800D02*
X146126000Y-130890800D01*
X157626000Y-117890800D02*
X157626000Y-121890800D01*
X155626000Y-117890800D02*
X157626000Y-117890800D01*
X157626000Y-121890800D02*
X155626000Y-121890800D01*
X155626000Y-121890800D02*
X155626000Y-130890800D01*
X155626000Y-130890800D02*
X146126000Y-130890800D01*
G04 #@! TO.C,J9*
X160001600Y-121700800D02*
X160001600Y-119700800D01*
X160001600Y-119700800D02*
X157701600Y-119700800D01*
X157701600Y-121700800D02*
X160001600Y-121700800D01*
X157701600Y-119700800D02*
X157701600Y-121700800D01*
G04 #@! TO.C,R7*
X152082400Y-112940300D02*
X152082400Y-110740300D01*
X153022400Y-112940300D02*
X152082400Y-112940300D01*
X152082400Y-110740300D02*
X153022400Y-110740300D01*
X153022400Y-110740300D02*
X153022400Y-112940300D01*
G04 #@! TO.C,R3*
X155638400Y-90508000D02*
X155638400Y-88308000D01*
X156578400Y-90508000D02*
X155638400Y-90508000D01*
X155638400Y-88308000D02*
X156578400Y-88308000D01*
X156578400Y-88308000D02*
X156578400Y-90508000D01*
G04 #@! TO.C,R2*
X160261200Y-87256800D02*
X160261200Y-85056800D01*
X161201200Y-87256800D02*
X160261200Y-87256800D01*
X160261200Y-85056800D02*
X161201200Y-85056800D01*
X161201200Y-85056800D02*
X161201200Y-87256800D01*
G04 #@! TO.C,R1*
X156705200Y-90508000D02*
X156705200Y-88308000D01*
X157645200Y-90508000D02*
X156705200Y-90508000D01*
X156705200Y-88308000D02*
X157645200Y-88308000D01*
X157645200Y-88308000D02*
X157645200Y-90508000D01*
G04 #@! TO.C,C4*
X156822400Y-124345200D02*
X156822400Y-126505200D01*
X155902400Y-124345200D02*
X156822400Y-124345200D01*
X156822400Y-126505200D02*
X155902400Y-126505200D01*
X155902400Y-126505200D02*
X155902400Y-124345200D01*
G04 #@! TO.C,R8*
X162831600Y-88734800D02*
X165031600Y-88734800D01*
X162831600Y-89674800D02*
X162831600Y-88734800D01*
X165031600Y-88734800D02*
X165031600Y-89674800D01*
X165031600Y-89674800D02*
X162831600Y-89674800D01*
G04 #@! TO.C,D1*
X156705200Y-112961600D02*
X156705200Y-110761600D01*
X157645200Y-112961600D02*
X156705200Y-112961600D01*
X156705200Y-110761600D02*
X157645200Y-110761600D01*
X157645200Y-110761600D02*
X157645200Y-112961600D01*
G04 #@! TO.C,R6*
X160515200Y-90508000D02*
X160515200Y-88308000D01*
X161455200Y-90508000D02*
X160515200Y-90508000D01*
X160515200Y-88308000D02*
X161455200Y-88308000D01*
X161455200Y-88308000D02*
X161455200Y-90508000D01*
G04 #@! TO.C,J4*
X156595600Y-88320400D02*
X156595600Y-85720400D01*
X156595600Y-85720400D02*
X153995600Y-85720400D01*
X153995600Y-88320400D02*
X156595600Y-88320400D01*
X153995600Y-85720400D02*
X153995600Y-88320400D01*
G04 #@! TO.C,J10*
X166185200Y-124526800D02*
X166185200Y-126526800D01*
X166185200Y-126526800D02*
X168485200Y-126526800D01*
X168485200Y-124526800D02*
X166185200Y-124526800D01*
X168485200Y-126526800D02*
X168485200Y-124526800D01*
G04 #@! TO.C,C3*
X162851600Y-89760800D02*
X165011600Y-89760800D01*
X162851600Y-90680800D02*
X162851600Y-89760800D01*
X165011600Y-89760800D02*
X165011600Y-90680800D01*
X165011600Y-90680800D02*
X162851600Y-90680800D01*
G04 #@! TO.C,C2*
X158752800Y-110790300D02*
X158752800Y-112950300D01*
X157832800Y-110790300D02*
X158752800Y-110790300D01*
X158752800Y-112950300D02*
X157832800Y-112950300D01*
X157832800Y-112950300D02*
X157832800Y-110790300D01*
G04 #@! TO.C,Q1*
X160185100Y-88263200D02*
X160185100Y-84863200D01*
X160185100Y-84863200D02*
X156345100Y-84863200D01*
X156345100Y-88263200D02*
X160185100Y-88263200D01*
X156345100Y-84863200D02*
X156345100Y-88263200D01*
G04 #@! TO.C,J2*
X142514800Y-126258800D02*
X142514800Y-128858800D01*
X142514800Y-128858800D02*
X145114800Y-128858800D01*
X145114800Y-126258800D02*
X142514800Y-126258800D01*
X145114800Y-128858800D02*
X145114800Y-126258800D01*
G04 #@! TD*
M02*
