G04 #@! TF.GenerationSoftware,KiCad,Pcbnew,7.0.1-0*
G04 #@! TF.CreationDate,2025-03-17T17:28:38+01:00*
G04 #@! TF.ProjectId,LED-Controller,4c45442d-436f-46e7-9472-6f6c6c65722e,rev?*
G04 #@! TF.SameCoordinates,Original*
G04 #@! TF.FileFunction,Other,Comment*
%FSLAX46Y46*%
G04 Gerber Fmt 4.6, Leading zero omitted, Abs format (unit mm)*
G04 Created by KiCad (PCBNEW 7.0.1-0) date 2025-03-17 17:28:38*
%MOMM*%
%LPD*%
G01*
G04 APERTURE LIST*
%ADD10C,0.150000*%
G04 APERTURE END LIST*
D10*
G04 #@! TO.C,U1*
X142263904Y-103358304D02*
X142263904Y-102882114D01*
X142549619Y-103453542D02*
X141549619Y-103120209D01*
X141549619Y-103120209D02*
X142549619Y-102786876D01*
X141882952Y-102453542D02*
X142549619Y-102453542D01*
X141978190Y-102453542D02*
X141930571Y-102405923D01*
X141930571Y-102405923D02*
X141882952Y-102310685D01*
X141882952Y-102310685D02*
X141882952Y-102167828D01*
X141882952Y-102167828D02*
X141930571Y-102072590D01*
X141930571Y-102072590D02*
X142025809Y-102024971D01*
X142025809Y-102024971D02*
X142549619Y-102024971D01*
X141882952Y-101691637D02*
X141882952Y-101310685D01*
X141549619Y-101548780D02*
X142406761Y-101548780D01*
X142406761Y-101548780D02*
X142502000Y-101501161D01*
X142502000Y-101501161D02*
X142549619Y-101405923D01*
X142549619Y-101405923D02*
X142549619Y-101310685D01*
X142502000Y-100596399D02*
X142549619Y-100691637D01*
X142549619Y-100691637D02*
X142549619Y-100882113D01*
X142549619Y-100882113D02*
X142502000Y-100977351D01*
X142502000Y-100977351D02*
X142406761Y-101024970D01*
X142406761Y-101024970D02*
X142025809Y-101024970D01*
X142025809Y-101024970D02*
X141930571Y-100977351D01*
X141930571Y-100977351D02*
X141882952Y-100882113D01*
X141882952Y-100882113D02*
X141882952Y-100691637D01*
X141882952Y-100691637D02*
X141930571Y-100596399D01*
X141930571Y-100596399D02*
X142025809Y-100548780D01*
X142025809Y-100548780D02*
X142121047Y-100548780D01*
X142121047Y-100548780D02*
X142216285Y-101024970D01*
X141882952Y-100120208D02*
X142549619Y-100120208D01*
X141978190Y-100120208D02*
X141930571Y-100072589D01*
X141930571Y-100072589D02*
X141882952Y-99977351D01*
X141882952Y-99977351D02*
X141882952Y-99834494D01*
X141882952Y-99834494D02*
X141930571Y-99739256D01*
X141930571Y-99739256D02*
X142025809Y-99691637D01*
X142025809Y-99691637D02*
X142549619Y-99691637D01*
X141882952Y-99215446D02*
X142549619Y-99215446D01*
X141978190Y-99215446D02*
X141930571Y-99167827D01*
X141930571Y-99167827D02*
X141882952Y-99072589D01*
X141882952Y-99072589D02*
X141882952Y-98929732D01*
X141882952Y-98929732D02*
X141930571Y-98834494D01*
X141930571Y-98834494D02*
X142025809Y-98786875D01*
X142025809Y-98786875D02*
X142549619Y-98786875D01*
X142549619Y-97882113D02*
X142025809Y-97882113D01*
X142025809Y-97882113D02*
X141930571Y-97929732D01*
X141930571Y-97929732D02*
X141882952Y-98024970D01*
X141882952Y-98024970D02*
X141882952Y-98215446D01*
X141882952Y-98215446D02*
X141930571Y-98310684D01*
X142502000Y-97882113D02*
X142549619Y-97977351D01*
X142549619Y-97977351D02*
X142549619Y-98215446D01*
X142549619Y-98215446D02*
X142502000Y-98310684D01*
X142502000Y-98310684D02*
X142406761Y-98358303D01*
X142406761Y-98358303D02*
X142311523Y-98358303D01*
X142311523Y-98358303D02*
X142216285Y-98310684D01*
X142216285Y-98310684D02*
X142168666Y-98215446D01*
X142168666Y-98215446D02*
X142168666Y-97977351D01*
X142168666Y-97977351D02*
X142121047Y-97882113D01*
X133532238Y-112689257D02*
X131532238Y-112689257D01*
X133532238Y-111546400D02*
X132389380Y-112403543D01*
X131532238Y-111546400D02*
X132675095Y-112689257D01*
X132484619Y-110689257D02*
X132484619Y-110022590D01*
X133532238Y-109736876D02*
X133532238Y-110689257D01*
X133532238Y-110689257D02*
X131532238Y-110689257D01*
X131532238Y-110689257D02*
X131532238Y-109736876D01*
X132484619Y-108879733D02*
X132484619Y-108213066D01*
X133532238Y-107927352D02*
X133532238Y-108879733D01*
X133532238Y-108879733D02*
X131532238Y-108879733D01*
X131532238Y-108879733D02*
X131532238Y-107927352D01*
X133532238Y-107070209D02*
X131532238Y-107070209D01*
X131532238Y-107070209D02*
X131532238Y-106308304D01*
X131532238Y-106308304D02*
X131627476Y-106117828D01*
X131627476Y-106117828D02*
X131722714Y-106022590D01*
X131722714Y-106022590D02*
X131913190Y-105927352D01*
X131913190Y-105927352D02*
X132198904Y-105927352D01*
X132198904Y-105927352D02*
X132389380Y-106022590D01*
X132389380Y-106022590D02*
X132484619Y-106117828D01*
X132484619Y-106117828D02*
X132579857Y-106308304D01*
X132579857Y-106308304D02*
X132579857Y-107070209D01*
X132770333Y-105070209D02*
X132770333Y-103546400D01*
X131532238Y-102213067D02*
X131532238Y-101832114D01*
X131532238Y-101832114D02*
X131627476Y-101641638D01*
X131627476Y-101641638D02*
X131817952Y-101451162D01*
X131817952Y-101451162D02*
X132198904Y-101355924D01*
X132198904Y-101355924D02*
X132865571Y-101355924D01*
X132865571Y-101355924D02*
X133246523Y-101451162D01*
X133246523Y-101451162D02*
X133437000Y-101641638D01*
X133437000Y-101641638D02*
X133532238Y-101832114D01*
X133532238Y-101832114D02*
X133532238Y-102213067D01*
X133532238Y-102213067D02*
X133437000Y-102403543D01*
X133437000Y-102403543D02*
X133246523Y-102594019D01*
X133246523Y-102594019D02*
X132865571Y-102689257D01*
X132865571Y-102689257D02*
X132198904Y-102689257D01*
X132198904Y-102689257D02*
X131817952Y-102594019D01*
X131817952Y-102594019D02*
X131627476Y-102403543D01*
X131627476Y-102403543D02*
X131532238Y-102213067D01*
X131532238Y-100498781D02*
X133151285Y-100498781D01*
X133151285Y-100498781D02*
X133341761Y-100403543D01*
X133341761Y-100403543D02*
X133437000Y-100308305D01*
X133437000Y-100308305D02*
X133532238Y-100117829D01*
X133532238Y-100117829D02*
X133532238Y-99736876D01*
X133532238Y-99736876D02*
X133437000Y-99546400D01*
X133437000Y-99546400D02*
X133341761Y-99451162D01*
X133341761Y-99451162D02*
X133151285Y-99355924D01*
X133151285Y-99355924D02*
X131532238Y-99355924D01*
X131532238Y-98689257D02*
X131532238Y-97546400D01*
X133532238Y-98117829D02*
X131532238Y-98117829D01*
X131532238Y-95546399D02*
X131532238Y-94213066D01*
X131532238Y-94213066D02*
X133532238Y-95546399D01*
X133532238Y-95546399D02*
X133532238Y-94213066D01*
X131532238Y-93070209D02*
X131532238Y-92689256D01*
X131532238Y-92689256D02*
X131627476Y-92498780D01*
X131627476Y-92498780D02*
X131817952Y-92308304D01*
X131817952Y-92308304D02*
X132198904Y-92213066D01*
X132198904Y-92213066D02*
X132865571Y-92213066D01*
X132865571Y-92213066D02*
X133246523Y-92308304D01*
X133246523Y-92308304D02*
X133437000Y-92498780D01*
X133437000Y-92498780D02*
X133532238Y-92689256D01*
X133532238Y-92689256D02*
X133532238Y-93070209D01*
X133532238Y-93070209D02*
X133437000Y-93260685D01*
X133437000Y-93260685D02*
X133246523Y-93451161D01*
X133246523Y-93451161D02*
X132865571Y-93546399D01*
X132865571Y-93546399D02*
X132198904Y-93546399D01*
X132198904Y-93546399D02*
X131817952Y-93451161D01*
X131817952Y-93451161D02*
X131627476Y-93260685D01*
X131627476Y-93260685D02*
X131532238Y-93070209D01*
X133532238Y-91355923D02*
X131532238Y-91355923D01*
X131532238Y-91355923D02*
X133532238Y-90213066D01*
X133532238Y-90213066D02*
X131532238Y-90213066D01*
X132484619Y-89260685D02*
X132484619Y-88594018D01*
X133532238Y-88308304D02*
X133532238Y-89260685D01*
X133532238Y-89260685D02*
X131532238Y-89260685D01*
X131532238Y-89260685D02*
X131532238Y-88308304D01*
G04 #@! TD*
M02*
