G04 #@! TF.GenerationSoftware,KiCad,Pcbnew,7.0.1-0*
G04 #@! TF.CreationDate,2025-03-17T17:28:37+01:00*
G04 #@! TF.ProjectId,LED-Controller,4c45442d-436f-46e7-9472-6f6c6c65722e,rev?*
G04 #@! TF.SameCoordinates,Original*
G04 #@! TF.FileFunction,Legend,Top*
G04 #@! TF.FilePolarity,Positive*
%FSLAX46Y46*%
G04 Gerber Fmt 4.6, Leading zero omitted, Abs format (unit mm)*
G04 Created by KiCad (PCBNEW 7.0.1-0) date 2025-03-17 17:28:37*
%MOMM*%
%LPD*%
G01*
G04 APERTURE LIST*
%ADD10C,0.150000*%
%ADD11C,0.120000*%
%ADD12C,0.100000*%
G04 APERTURE END LIST*
D10*
G04 #@! TO.C,U2*
X160680495Y-121540219D02*
X160680495Y-122349742D01*
X160680495Y-122349742D02*
X160728114Y-122444980D01*
X160728114Y-122444980D02*
X160775733Y-122492600D01*
X160775733Y-122492600D02*
X160870971Y-122540219D01*
X160870971Y-122540219D02*
X161061447Y-122540219D01*
X161061447Y-122540219D02*
X161156685Y-122492600D01*
X161156685Y-122492600D02*
X161204304Y-122444980D01*
X161204304Y-122444980D02*
X161251923Y-122349742D01*
X161251923Y-122349742D02*
X161251923Y-121540219D01*
X161680495Y-121635457D02*
X161728114Y-121587838D01*
X161728114Y-121587838D02*
X161823352Y-121540219D01*
X161823352Y-121540219D02*
X162061447Y-121540219D01*
X162061447Y-121540219D02*
X162156685Y-121587838D01*
X162156685Y-121587838D02*
X162204304Y-121635457D01*
X162204304Y-121635457D02*
X162251923Y-121730695D01*
X162251923Y-121730695D02*
X162251923Y-121825933D01*
X162251923Y-121825933D02*
X162204304Y-121968790D01*
X162204304Y-121968790D02*
X161632876Y-122540219D01*
X161632876Y-122540219D02*
X162251923Y-122540219D01*
D11*
X158942400Y-123447600D02*
X160082400Y-123447600D01*
X162802400Y-127937600D02*
X160082400Y-127937600D01*
X160082400Y-127937600D02*
X160082400Y-127707600D01*
X160082400Y-123217600D02*
X162802400Y-123217600D01*
X160082400Y-123217600D02*
X160082400Y-123447600D01*
X162802400Y-123217600D02*
X162802400Y-124527600D01*
X162802400Y-126627600D02*
X162802400Y-127937600D01*
D12*
G04 #@! TO.C,SW1*
X159816800Y-119481600D02*
X160274000Y-119481600D01*
X163118800Y-119481600D02*
X162610800Y-119481600D01*
X163118800Y-119481600D02*
X163118800Y-113182400D01*
X159816800Y-113182400D02*
X159816800Y-119481600D01*
X160274000Y-113182400D02*
X159816800Y-113182400D01*
X163118800Y-113182400D02*
X162610800Y-113182400D01*
G04 #@! TO.C,SW2*
X168656000Y-86608400D02*
X168198800Y-86608400D01*
X165354000Y-86608400D02*
X165862000Y-86608400D01*
X165354000Y-86608400D02*
X165354000Y-92907600D01*
X168656000Y-92907600D02*
X168656000Y-86608400D01*
X168198800Y-92907600D02*
X168656000Y-92907600D01*
X165354000Y-92907600D02*
X165862000Y-92907600D01*
D11*
G04 #@! TO.C,R5*
X161773600Y-89728021D02*
X161773600Y-89392779D01*
X162533600Y-89728021D02*
X162533600Y-89392779D01*
G04 #@! TO.C,J22*
X166386200Y-95758000D02*
X166386200Y-95073000D01*
X166386200Y-96443000D02*
X167776200Y-96443000D01*
X167689476Y-96443000D02*
X167776200Y-96443000D01*
X166386200Y-96443000D02*
X166386200Y-96318000D01*
X166386200Y-95073000D02*
X167081200Y-95073000D01*
X166386200Y-96443000D02*
X166472924Y-96443000D01*
X167776200Y-96443000D02*
X167776200Y-96318000D01*
G04 #@! TO.C,J11*
X167827000Y-118896600D02*
X167827000Y-118771600D01*
X166437000Y-118896600D02*
X166523724Y-118896600D01*
X166437000Y-117526600D02*
X167132000Y-117526600D01*
X166437000Y-118896600D02*
X166437000Y-118771600D01*
X167740276Y-118896600D02*
X167827000Y-118896600D01*
X166437000Y-118896600D02*
X167827000Y-118896600D01*
X166437000Y-118211600D02*
X166437000Y-117526600D01*
G04 #@! TO.C,J19*
X167776200Y-100659400D02*
X167776200Y-100534400D01*
X166386200Y-100659400D02*
X166472924Y-100659400D01*
X166386200Y-99289400D02*
X167081200Y-99289400D01*
X166386200Y-100659400D02*
X166386200Y-100534400D01*
X167689476Y-100659400D02*
X167776200Y-100659400D01*
X166386200Y-100659400D02*
X167776200Y-100659400D01*
X166386200Y-99974400D02*
X166386200Y-99289400D01*
G04 #@! TO.C,J25*
X159394200Y-117931400D02*
X159394200Y-117806400D01*
X158004200Y-117931400D02*
X158090924Y-117931400D01*
X158004200Y-116561400D02*
X158699200Y-116561400D01*
X158004200Y-117931400D02*
X158004200Y-117806400D01*
X159307476Y-117931400D02*
X159394200Y-117931400D01*
X158004200Y-117931400D02*
X159394200Y-117931400D01*
X158004200Y-117246400D02*
X158004200Y-116561400D01*
G04 #@! TO.C,J24*
X159394200Y-115797800D02*
X159394200Y-115672800D01*
X158004200Y-115797800D02*
X158090924Y-115797800D01*
X158004200Y-114427800D02*
X158699200Y-114427800D01*
X158004200Y-115797800D02*
X158004200Y-115672800D01*
X159307476Y-115797800D02*
X159394200Y-115797800D01*
X158004200Y-115797800D02*
X159394200Y-115797800D01*
X158004200Y-115112800D02*
X158004200Y-114427800D01*
G04 #@! TO.C,J23*
X167776200Y-98525800D02*
X167776200Y-98400800D01*
X166386200Y-98525800D02*
X166472924Y-98525800D01*
X166386200Y-97155800D02*
X167081200Y-97155800D01*
X166386200Y-98525800D02*
X166386200Y-98400800D01*
X167689476Y-98525800D02*
X167776200Y-98525800D01*
X166386200Y-98525800D02*
X167776200Y-98525800D01*
X166386200Y-97840800D02*
X166386200Y-97155800D01*
G04 #@! TO.C,J21*
X167776200Y-107060200D02*
X167776200Y-106935200D01*
X166386200Y-107060200D02*
X166472924Y-107060200D01*
X166386200Y-105690200D02*
X167081200Y-105690200D01*
X166386200Y-107060200D02*
X166386200Y-106935200D01*
X167689476Y-107060200D02*
X167776200Y-107060200D01*
X166386200Y-107060200D02*
X167776200Y-107060200D01*
X166386200Y-106375200D02*
X166386200Y-105690200D01*
G04 #@! TO.C,J20*
X167776200Y-104926600D02*
X167776200Y-104801600D01*
X166386200Y-104926600D02*
X166472924Y-104926600D01*
X166386200Y-103556600D02*
X167081200Y-103556600D01*
X166386200Y-104926600D02*
X166386200Y-104801600D01*
X167689476Y-104926600D02*
X167776200Y-104926600D01*
X166386200Y-104926600D02*
X167776200Y-104926600D01*
X166386200Y-104241600D02*
X166386200Y-103556600D01*
G04 #@! TO.C,J18*
X166386200Y-102108000D02*
X166386200Y-101423000D01*
X166386200Y-102793000D02*
X167776200Y-102793000D01*
X167689476Y-102793000D02*
X167776200Y-102793000D01*
X166386200Y-102793000D02*
X166386200Y-102668000D01*
X166386200Y-101423000D02*
X167081200Y-101423000D01*
X166386200Y-102793000D02*
X166472924Y-102793000D01*
X167776200Y-102793000D02*
X167776200Y-102668000D01*
G04 #@! TO.C,J17*
X167725400Y-110006600D02*
X167725400Y-109881600D01*
X166335400Y-110006600D02*
X166422124Y-110006600D01*
X166335400Y-108636600D02*
X167030400Y-108636600D01*
X166335400Y-110006600D02*
X166335400Y-109881600D01*
X167638676Y-110006600D02*
X167725400Y-110006600D01*
X166335400Y-110006600D02*
X167725400Y-110006600D01*
X166335400Y-109321600D02*
X166335400Y-108636600D01*
G04 #@! TO.C,J16*
X167776200Y-112191000D02*
X167776200Y-112066000D01*
X166386200Y-112191000D02*
X166472924Y-112191000D01*
X166386200Y-110821000D02*
X167081200Y-110821000D01*
X166386200Y-112191000D02*
X166386200Y-112066000D01*
X167689476Y-112191000D02*
X167776200Y-112191000D01*
X166386200Y-112191000D02*
X167776200Y-112191000D01*
X166386200Y-111506000D02*
X166386200Y-110821000D01*
G04 #@! TO.C,J15*
X167776200Y-114375400D02*
X167776200Y-114250400D01*
X166386200Y-114375400D02*
X166472924Y-114375400D01*
X166386200Y-113005400D02*
X167081200Y-113005400D01*
X166386200Y-114375400D02*
X166386200Y-114250400D01*
X167689476Y-114375400D02*
X167776200Y-114375400D01*
X166386200Y-114375400D02*
X167776200Y-114375400D01*
X166386200Y-113690400D02*
X166386200Y-113005400D01*
G04 #@! TO.C,J14*
X163897000Y-113690400D02*
X163897000Y-113005400D01*
X163897000Y-114375400D02*
X165287000Y-114375400D01*
X165200276Y-114375400D02*
X165287000Y-114375400D01*
X163897000Y-114375400D02*
X163897000Y-114250400D01*
X163897000Y-113005400D02*
X164592000Y-113005400D01*
X163897000Y-114375400D02*
X163983724Y-114375400D01*
X165287000Y-114375400D02*
X165287000Y-114250400D01*
G04 #@! TO.C,J13*
X167827000Y-116610600D02*
X167827000Y-116485600D01*
X166437000Y-116610600D02*
X166523724Y-116610600D01*
X166437000Y-115240600D02*
X167132000Y-115240600D01*
X166437000Y-116610600D02*
X166437000Y-116485600D01*
X167740276Y-116610600D02*
X167827000Y-116610600D01*
X166437000Y-116610600D02*
X167827000Y-116610600D01*
X166437000Y-115925600D02*
X166437000Y-115240600D01*
G04 #@! TO.C,J12*
X165287000Y-116610600D02*
X165287000Y-116485600D01*
X163897000Y-116610600D02*
X163983724Y-116610600D01*
X163897000Y-115240600D02*
X164592000Y-115240600D01*
X163897000Y-116610600D02*
X163897000Y-116485600D01*
X165200276Y-116610600D02*
X165287000Y-116610600D01*
X163897000Y-116610600D02*
X165287000Y-116610600D01*
X163897000Y-115925600D02*
X163897000Y-115240600D01*
G04 #@! TO.C,J5*
X163897000Y-118211600D02*
X163897000Y-117526600D01*
X163897000Y-118896600D02*
X165287000Y-118896600D01*
X165200276Y-118896600D02*
X165287000Y-118896600D01*
X163897000Y-118896600D02*
X163897000Y-118771600D01*
X163897000Y-117526600D02*
X164592000Y-117526600D01*
X163897000Y-118896600D02*
X163983724Y-118896600D01*
X165287000Y-118896600D02*
X165287000Y-118771600D01*
G04 #@! TO.C,Q3*
X163243500Y-85104800D02*
X162593500Y-85104800D01*
X163243500Y-85104800D02*
X163893500Y-85104800D01*
X163243500Y-88224800D02*
X162593500Y-88224800D01*
X163243500Y-88224800D02*
X164918500Y-88224800D01*
G04 #@! TO.C,Q2*
X152219900Y-88224800D02*
X153894900Y-88224800D01*
X152219900Y-88224800D02*
X151569900Y-88224800D01*
X152219900Y-85104800D02*
X152869900Y-85104800D01*
X152219900Y-85104800D02*
X151569900Y-85104800D01*
G04 #@! TO.C,R9*
X153442400Y-112007921D02*
X153442400Y-111672679D01*
X154202400Y-112007921D02*
X154202400Y-111672679D01*
G04 #@! TO.C,R4*
X155178779Y-85065600D02*
X155514021Y-85065600D01*
X155178779Y-85825600D02*
X155514021Y-85825600D01*
G04 #@! TO.C,U1*
X139227000Y-109716400D02*
X145642000Y-109716400D01*
X139227000Y-109716400D02*
X139227000Y-91476400D01*
X145642000Y-109716400D02*
X145642000Y-110096400D01*
X164187000Y-109716400D02*
X164967000Y-109716400D01*
X164967000Y-109716400D02*
X164967000Y-108716400D01*
X139227000Y-91476400D02*
X145642000Y-91476400D01*
X164187000Y-91476400D02*
X164967000Y-91476400D01*
X164967000Y-91476400D02*
X164967000Y-92476400D01*
G04 #@! TO.C,J8*
X152485400Y-90347000D02*
X151790400Y-90347000D01*
X152485400Y-89662000D02*
X152485400Y-90347000D01*
X152485400Y-88977000D02*
X152485400Y-89102000D01*
X152485400Y-88977000D02*
X152398676Y-88977000D01*
X152485400Y-88977000D02*
X151095400Y-88977000D01*
X151182124Y-88977000D02*
X151095400Y-88977000D01*
X151095400Y-88977000D02*
X151095400Y-89102000D01*
G04 #@! TO.C,C1*
X155614635Y-112831200D02*
X155382965Y-112831200D01*
X155614635Y-112111200D02*
X155382965Y-112111200D01*
G04 #@! TO.C,J7*
X150097800Y-90347000D02*
X149402800Y-90347000D01*
X150097800Y-89662000D02*
X150097800Y-90347000D01*
X150097800Y-88977000D02*
X150097800Y-89102000D01*
X150097800Y-88977000D02*
X150011076Y-88977000D01*
X150097800Y-88977000D02*
X148707800Y-88977000D01*
X148794524Y-88977000D02*
X148707800Y-88977000D01*
X148707800Y-88977000D02*
X148707800Y-89102000D01*
G04 #@! TO.C,J1*
X147126000Y-115790800D02*
X146076000Y-115790800D01*
X155476000Y-115990800D02*
X155476000Y-117890800D01*
X152776000Y-115990800D02*
X155476000Y-115990800D01*
X146276000Y-115990800D02*
X148876000Y-115990800D01*
X146076000Y-116840800D02*
X146076000Y-115790800D01*
X155476000Y-121890800D02*
X155476000Y-130690800D01*
X155476000Y-130690800D02*
X146276000Y-130690800D01*
X146276000Y-130690800D02*
X146276000Y-115990800D01*
G04 #@! TO.C,J9*
X159546600Y-121385800D02*
X158851600Y-121385800D01*
X159546600Y-120700800D02*
X159546600Y-121385800D01*
X159546600Y-120015800D02*
X159546600Y-120140800D01*
X159546600Y-120015800D02*
X159459876Y-120015800D01*
X159546600Y-120015800D02*
X158156600Y-120015800D01*
X158243324Y-120015800D02*
X158156600Y-120015800D01*
X158156600Y-120015800D02*
X158156600Y-120140800D01*
G04 #@! TO.C,R7*
X152172400Y-112007921D02*
X152172400Y-111672679D01*
X152932400Y-112007921D02*
X152932400Y-111672679D01*
G04 #@! TO.C,R3*
X155728400Y-89575621D02*
X155728400Y-89240379D01*
X156488400Y-89575621D02*
X156488400Y-89240379D01*
G04 #@! TO.C,R2*
X160351200Y-86324421D02*
X160351200Y-85989179D01*
X161111200Y-86324421D02*
X161111200Y-85989179D01*
G04 #@! TO.C,R1*
X156795200Y-89575621D02*
X156795200Y-89240379D01*
X157555200Y-89575621D02*
X157555200Y-89240379D01*
G04 #@! TO.C,C4*
X156722400Y-125309365D02*
X156722400Y-125541035D01*
X156002400Y-125309365D02*
X156002400Y-125541035D01*
G04 #@! TO.C,R8*
X163763979Y-88824800D02*
X164099221Y-88824800D01*
X163763979Y-89584800D02*
X164099221Y-89584800D01*
D12*
G04 #@! TO.C,D1*
X157225200Y-113126600D02*
G75*
G03*
X157225200Y-113126600I-50000J0D01*
G01*
D11*
G04 #@! TO.C,R6*
X160605200Y-89575621D02*
X160605200Y-89240379D01*
X161365200Y-89575621D02*
X161365200Y-89240379D01*
G04 #@! TO.C,J10*
X166640200Y-124841800D02*
X167335200Y-124841800D01*
X166640200Y-125526800D02*
X166640200Y-124841800D01*
X166640200Y-126211800D02*
X166640200Y-126086800D01*
X166640200Y-126211800D02*
X166726924Y-126211800D01*
X166640200Y-126211800D02*
X168030200Y-126211800D01*
X167943476Y-126211800D02*
X168030200Y-126211800D01*
X168030200Y-126211800D02*
X168030200Y-126086800D01*
G04 #@! TO.C,C3*
X163815765Y-89860800D02*
X164047435Y-89860800D01*
X163815765Y-90580800D02*
X164047435Y-90580800D01*
G04 #@! TO.C,C2*
X158652800Y-111986135D02*
X158652800Y-111754465D01*
X157932800Y-111986135D02*
X157932800Y-111754465D01*
G04 #@! TO.C,Q1*
X158265100Y-88123200D02*
X159940100Y-88123200D01*
X158265100Y-88123200D02*
X157615100Y-88123200D01*
X158265100Y-85003200D02*
X158915100Y-85003200D01*
X158265100Y-85003200D02*
X157615100Y-85003200D01*
G04 #@! TD*
M02*
