G04 #@! TF.GenerationSoftware,KiCad,Pcbnew,7.0.1-0*
G04 #@! TF.CreationDate,2025-03-17T17:28:37+01:00*
G04 #@! TF.ProjectId,LED-Controller,4c45442d-436f-46e7-9472-6f6c6c65722e,rev?*
G04 #@! TF.SameCoordinates,Original*
G04 #@! TF.FileFunction,Copper,L1,Top*
G04 #@! TF.FilePolarity,Positive*
%FSLAX46Y46*%
G04 Gerber Fmt 4.6, Leading zero omitted, Abs format (unit mm)*
G04 Created by KiCad (PCBNEW 7.0.1-0) date 2025-03-17 17:28:37*
%MOMM*%
%LPD*%
G01*
G04 APERTURE LIST*
G04 Aperture macros list*
%AMRoundRect*
0 Rectangle with rounded corners*
0 $1 Rounding radius*
0 $2 $3 $4 $5 $6 $7 $8 $9 X,Y pos of 4 corners*
0 Add a 4 corners polygon primitive as box body*
4,1,4,$2,$3,$4,$5,$6,$7,$8,$9,$2,$3,0*
0 Add four circle primitives for the rounded corners*
1,1,$1+$1,$2,$3*
1,1,$1+$1,$4,$5*
1,1,$1+$1,$6,$7*
1,1,$1+$1,$8,$9*
0 Add four rect primitives between the rounded corners*
20,1,$1+$1,$2,$3,$4,$5,0*
20,1,$1+$1,$4,$5,$6,$7,0*
20,1,$1+$1,$6,$7,$8,$9,0*
20,1,$1+$1,$8,$9,$2,$3,0*%
%AMFreePoly0*
4,1,9,5.362500,-0.866500,1.237500,-0.866500,1.237500,-0.450000,-1.237500,-0.450000,-1.237500,0.450000,1.237500,0.450000,1.237500,0.866500,5.362500,0.866500,5.362500,-0.866500,5.362500,-0.866500,$1*%
G04 Aperture macros list end*
G04 #@! TA.AperFunction,SMDPad,CuDef*
%ADD10R,2.300000X0.900000*%
G04 #@! TD*
G04 #@! TA.AperFunction,SMDPad,CuDef*
%ADD11FreePoly0,0.000000*%
G04 #@! TD*
G04 #@! TA.AperFunction,SMDPad,CuDef*
%ADD12RoundRect,0.381000X0.762000X0.381000X-0.762000X0.381000X-0.762000X-0.381000X0.762000X-0.381000X0*%
G04 #@! TD*
G04 #@! TA.AperFunction,SMDPad,CuDef*
%ADD13RoundRect,0.381000X-0.762000X-0.381000X0.762000X-0.381000X0.762000X0.381000X-0.762000X0.381000X0*%
G04 #@! TD*
G04 #@! TA.AperFunction,SMDPad,CuDef*
%ADD14RoundRect,0.160000X0.160000X-0.197500X0.160000X0.197500X-0.160000X0.197500X-0.160000X-0.197500X0*%
G04 #@! TD*
G04 #@! TA.AperFunction,ComponentPad*
%ADD15R,0.850000X0.850000*%
G04 #@! TD*
G04 #@! TA.AperFunction,SMDPad,CuDef*
%ADD16RoundRect,0.150000X0.587500X0.150000X-0.587500X0.150000X-0.587500X-0.150000X0.587500X-0.150000X0*%
G04 #@! TD*
G04 #@! TA.AperFunction,SMDPad,CuDef*
%ADD17RoundRect,0.160000X-0.197500X-0.160000X0.197500X-0.160000X0.197500X0.160000X-0.197500X0.160000X0*%
G04 #@! TD*
G04 #@! TA.AperFunction,SMDPad,CuDef*
%ADD18R,0.900000X1.500000*%
G04 #@! TD*
G04 #@! TA.AperFunction,SMDPad,CuDef*
%ADD19R,1.500000X0.900000*%
G04 #@! TD*
G04 #@! TA.AperFunction,SMDPad,CuDef*
%ADD20R,1.050000X1.050000*%
G04 #@! TD*
G04 #@! TA.AperFunction,HeatsinkPad*
%ADD21C,0.600000*%
G04 #@! TD*
G04 #@! TA.AperFunction,SMDPad,CuDef*
%ADD22R,4.200000X4.200000*%
G04 #@! TD*
G04 #@! TA.AperFunction,SMDPad,CuDef*
%ADD23RoundRect,0.155000X0.212500X0.155000X-0.212500X0.155000X-0.212500X-0.155000X0.212500X-0.155000X0*%
G04 #@! TD*
G04 #@! TA.AperFunction,ComponentPad*
%ADD24RoundRect,0.250000X0.550000X0.550000X-0.550000X0.550000X-0.550000X-0.550000X0.550000X-0.550000X0*%
G04 #@! TD*
G04 #@! TA.AperFunction,ComponentPad*
%ADD25RoundRect,0.250000X-0.550000X-0.550000X0.550000X-0.550000X0.550000X0.550000X-0.550000X0.550000X0*%
G04 #@! TD*
G04 #@! TA.AperFunction,ComponentPad*
%ADD26RoundRect,0.875000X0.875000X-0.875000X0.875000X0.875000X-0.875000X0.875000X-0.875000X-0.875000X0*%
G04 #@! TD*
G04 #@! TA.AperFunction,ComponentPad*
%ADD27RoundRect,0.750000X1.000000X-0.750000X1.000000X0.750000X-1.000000X0.750000X-1.000000X-0.750000X0*%
G04 #@! TD*
G04 #@! TA.AperFunction,ComponentPad*
%ADD28R,3.500000X3.500000*%
G04 #@! TD*
G04 #@! TA.AperFunction,SMDPad,CuDef*
%ADD29RoundRect,0.155000X-0.155000X0.212500X-0.155000X-0.212500X0.155000X-0.212500X0.155000X0.212500X0*%
G04 #@! TD*
G04 #@! TA.AperFunction,SMDPad,CuDef*
%ADD30RoundRect,0.160000X0.160000X-0.222500X0.160000X0.222500X-0.160000X0.222500X-0.160000X-0.222500X0*%
G04 #@! TD*
G04 #@! TA.AperFunction,SMDPad,CuDef*
%ADD31RoundRect,0.155000X-0.212500X-0.155000X0.212500X-0.155000X0.212500X0.155000X-0.212500X0.155000X0*%
G04 #@! TD*
G04 #@! TA.AperFunction,SMDPad,CuDef*
%ADD32RoundRect,0.155000X0.155000X-0.212500X0.155000X0.212500X-0.155000X0.212500X-0.155000X-0.212500X0*%
G04 #@! TD*
G04 #@! TA.AperFunction,ViaPad*
%ADD33C,0.800000*%
G04 #@! TD*
G04 #@! TA.AperFunction,Conductor*
%ADD34C,0.250000*%
G04 #@! TD*
G04 #@! TA.AperFunction,Conductor*
%ADD35C,0.200000*%
G04 #@! TD*
G04 APERTURE END LIST*
D10*
G04 #@! TO.P,U2,1,GND*
G04 #@! TO.N,GNDREF*
X158992400Y-124077600D03*
D11*
G04 #@! TO.P,U2,2,VO*
G04 #@! TO.N,+3.3V*
X159079900Y-125577600D03*
D10*
G04 #@! TO.P,U2,3,VI*
G04 #@! TO.N,+12V*
X158992400Y-127077600D03*
G04 #@! TD*
D12*
G04 #@! TO.P,SW1,1,1*
G04 #@! TO.N,GNDREF*
X161442400Y-120294400D03*
G04 #@! TO.P,SW1,2,2*
G04 #@! TO.N,EN*
X161442400Y-112420400D03*
G04 #@! TD*
D13*
G04 #@! TO.P,SW2,1,1*
G04 #@! TO.N,GNDREF*
X167030400Y-85795600D03*
G04 #@! TO.P,SW2,2,2*
G04 #@! TO.N,IO0*
X167030400Y-93669600D03*
G04 #@! TD*
D14*
G04 #@! TO.P,R5,1*
G04 #@! TO.N,LED-B*
X162153600Y-90157900D03*
G04 #@! TO.P,R5,2*
G04 #@! TO.N,Net-(Q3-G)*
X162153600Y-88962900D03*
G04 #@! TD*
D15*
G04 #@! TO.P,J22,1,Pin_1*
G04 #@! TO.N,SDI{slash}SD1*
X167081200Y-95758000D03*
G04 #@! TD*
G04 #@! TO.P,J11,1,Pin_1*
G04 #@! TO.N,Net-(J11-Pin_1)*
X167132000Y-118211600D03*
G04 #@! TD*
G04 #@! TO.P,J19,1,Pin_1*
G04 #@! TO.N,SCK{slash}SD3*
X167081200Y-99974400D03*
G04 #@! TD*
G04 #@! TO.P,J25,1,Pin_1*
G04 #@! TO.N,Sensor_VP*
X158699200Y-117246400D03*
G04 #@! TD*
G04 #@! TO.P,J24,1,Pin_1*
G04 #@! TO.N,Sensor_VN*
X158699200Y-115112800D03*
G04 #@! TD*
G04 #@! TO.P,J23,1,Pin_1*
G04 #@! TO.N,SDO{slash}SD0*
X167081200Y-97840800D03*
G04 #@! TD*
G04 #@! TO.P,J21,1,Pin_1*
G04 #@! TO.N,SHD{slash}SD2*
X167081200Y-106375200D03*
G04 #@! TD*
G04 #@! TO.P,J20,1,Pin_1*
G04 #@! TO.N,SWP{slash}SD3*
X167081200Y-104241600D03*
G04 #@! TD*
G04 #@! TO.P,J18,1,Pin_1*
G04 #@! TO.N,SCS{slash}CMD*
X167081200Y-102108000D03*
G04 #@! TD*
G04 #@! TO.P,J17,1,Pin_1*
G04 #@! TO.N,Net-(J17-Pin_1)*
X167030400Y-109321600D03*
G04 #@! TD*
G04 #@! TO.P,J16,1,Pin_1*
G04 #@! TO.N,Net-(J16-Pin_1)*
X167081200Y-111506000D03*
G04 #@! TD*
G04 #@! TO.P,J15,1,Pin_1*
G04 #@! TO.N,Net-(J15-Pin_1)*
X167081200Y-113690400D03*
G04 #@! TD*
G04 #@! TO.P,J14,1,Pin_1*
G04 #@! TO.N,Net-(J14-Pin_1)*
X164592000Y-113690400D03*
G04 #@! TD*
G04 #@! TO.P,J13,1,Pin_1*
G04 #@! TO.N,Net-(J13-Pin_1)*
X167132000Y-115925600D03*
G04 #@! TD*
G04 #@! TO.P,J12,1,Pin_1*
G04 #@! TO.N,Net-(J12-Pin_1)*
X164592000Y-115925600D03*
G04 #@! TD*
G04 #@! TO.P,J5,1,Pin_1*
G04 #@! TO.N,Net-(J5-Pin_1)*
X164592000Y-118211600D03*
G04 #@! TD*
D16*
G04 #@! TO.P,Q3,3,D*
G04 #@! TO.N,LED-B-Out*
X162306000Y-86664800D03*
G04 #@! TO.P,Q3,2,S*
G04 #@! TO.N,GNDREF*
X164181000Y-85714800D03*
G04 #@! TO.P,Q3,1,G*
G04 #@! TO.N,Net-(Q3-G)*
X164181000Y-87614800D03*
G04 #@! TD*
G04 #@! TO.P,Q2,1,G*
G04 #@! TO.N,Net-(Q2-G)*
X153157400Y-87614800D03*
G04 #@! TO.P,Q2,2,S*
G04 #@! TO.N,GNDREF*
X153157400Y-85714800D03*
G04 #@! TO.P,Q2,3,D*
G04 #@! TO.N,LED-G-Out*
X151282400Y-86664800D03*
G04 #@! TD*
D14*
G04 #@! TO.P,R9,1*
G04 #@! TO.N,+3.3V*
X153822400Y-112437800D03*
G04 #@! TO.P,R9,2*
G04 #@! TO.N,Net-(D1-A)*
X153822400Y-111242800D03*
G04 #@! TD*
D17*
G04 #@! TO.P,R4,1*
G04 #@! TO.N,Net-(Q2-G)*
X154748900Y-85445600D03*
G04 #@! TO.P,R4,2*
G04 #@! TO.N,GNDREF*
X155943900Y-85445600D03*
G04 #@! TD*
D18*
G04 #@! TO.P,U1,1,GND*
G04 #@! TO.N,GNDREF*
X146837000Y-109346400D03*
G04 #@! TO.P,U1,2,VDD*
G04 #@! TO.N,+3.3V*
X148107000Y-109346400D03*
G04 #@! TO.P,U1,3,EN*
G04 #@! TO.N,EN*
X149377000Y-109346400D03*
G04 #@! TO.P,U1,4,SENSOR_VP*
G04 #@! TO.N,Sensor_VP*
X150647000Y-109346400D03*
G04 #@! TO.P,U1,5,SENSOR_VN*
G04 #@! TO.N,Sensor_VN*
X151917000Y-109346400D03*
G04 #@! TO.P,U1,6,IO34*
G04 #@! TO.N,unconnected-(U1-IO34-Pad6)*
X153187000Y-109346400D03*
G04 #@! TO.P,U1,7,IO35*
G04 #@! TO.N,unconnected-(U1-IO35-Pad7)*
X154457000Y-109346400D03*
G04 #@! TO.P,U1,8,IO32*
G04 #@! TO.N,unconnected-(U1-IO32-Pad8)*
X155727000Y-109346400D03*
G04 #@! TO.P,U1,9,IO33*
G04 #@! TO.N,unconnected-(U1-IO33-Pad9)*
X156997000Y-109346400D03*
G04 #@! TO.P,U1,10,IO25*
G04 #@! TO.N,RGB-8*
X158267000Y-109346400D03*
G04 #@! TO.P,U1,11,IO26*
G04 #@! TO.N,RGB-7*
X159537000Y-109346400D03*
G04 #@! TO.P,U1,12,IO27*
G04 #@! TO.N,RGB-6*
X160807000Y-109346400D03*
G04 #@! TO.P,U1,13,IO14*
G04 #@! TO.N,RGB-5*
X162077000Y-109346400D03*
G04 #@! TO.P,U1,14,IO12*
G04 #@! TO.N,RGB-4*
X163347000Y-109346400D03*
D19*
G04 #@! TO.P,U1,15,GND*
G04 #@! TO.N,GNDREF*
X164597000Y-106306400D03*
G04 #@! TO.P,U1,16,IO13*
G04 #@! TO.N,RGB-3*
X164597000Y-105036400D03*
G04 #@! TO.P,U1,17,SHD/SD2*
G04 #@! TO.N,SHD{slash}SD2*
X164597000Y-103766400D03*
G04 #@! TO.P,U1,18,SWP/SD3*
G04 #@! TO.N,SWP{slash}SD3*
X164597000Y-102496400D03*
G04 #@! TO.P,U1,19,SCS/CMD*
G04 #@! TO.N,SCS{slash}CMD*
X164597000Y-101226400D03*
G04 #@! TO.P,U1,20,SCK/CLK*
G04 #@! TO.N,SCK{slash}SD3*
X164597000Y-99956400D03*
G04 #@! TO.P,U1,21,SDO/SD0*
G04 #@! TO.N,SDO{slash}SD0*
X164597000Y-98686400D03*
G04 #@! TO.P,U1,22,SDI/SD1*
G04 #@! TO.N,SDI{slash}SD1*
X164597000Y-97416400D03*
G04 #@! TO.P,U1,23,IO15*
G04 #@! TO.N,RGB-2*
X164597000Y-96146400D03*
G04 #@! TO.P,U1,24,IO2*
G04 #@! TO.N,RGB-1*
X164597000Y-94876400D03*
D18*
G04 #@! TO.P,U1,25,IO0*
G04 #@! TO.N,IO0*
X163347000Y-91846400D03*
G04 #@! TO.P,U1,26,IO4*
G04 #@! TO.N,unconnected-(U1-IO4-Pad26)*
X162077000Y-91846400D03*
G04 #@! TO.P,U1,27,IO16*
G04 #@! TO.N,unconnected-(U1-IO16-Pad27)*
X160807000Y-91846400D03*
G04 #@! TO.P,U1,28,IO17*
G04 #@! TO.N,unconnected-(U1-IO17-Pad28)*
X159537000Y-91846400D03*
G04 #@! TO.P,U1,29,IO5*
G04 #@! TO.N,unconnected-(U1-IO5-Pad29)*
X158267000Y-91846400D03*
G04 #@! TO.P,U1,30,IO18*
G04 #@! TO.N,LED-B*
X156997000Y-91846400D03*
G04 #@! TO.P,U1,31,IO19*
G04 #@! TO.N,LED-R*
X155727000Y-91846400D03*
G04 #@! TO.P,U1,32,NC*
G04 #@! TO.N,unconnected-(U1-NC-Pad32)*
X154457000Y-91846400D03*
G04 #@! TO.P,U1,33,IO21*
G04 #@! TO.N,LED-G*
X153187000Y-91846400D03*
G04 #@! TO.P,U1,34,RXD0/IO3*
G04 #@! TO.N,RX*
X151917000Y-91846400D03*
G04 #@! TO.P,U1,35,TXD0/IO1*
G04 #@! TO.N,TX*
X150647000Y-91846400D03*
G04 #@! TO.P,U1,36,IO22*
G04 #@! TO.N,unconnected-(U1-IO22-Pad36)*
X149377000Y-91846400D03*
G04 #@! TO.P,U1,37,IO23*
G04 #@! TO.N,unconnected-(U1-IO23-Pad37)*
X148107000Y-91846400D03*
G04 #@! TO.P,U1,38,GND*
G04 #@! TO.N,GNDREF*
X146837000Y-91846400D03*
D20*
G04 #@! TO.P,U1,39,GND*
X152652000Y-102801400D03*
D21*
X153414500Y-102801400D03*
D20*
X154177000Y-102801400D03*
D21*
X154939500Y-102801400D03*
D20*
X155702000Y-102801400D03*
D21*
X152652000Y-102038900D03*
X154177000Y-102038900D03*
X155702000Y-102038900D03*
D20*
X152652000Y-101276400D03*
D21*
X153414500Y-101276400D03*
D20*
X154177000Y-101276400D03*
D22*
X154177000Y-101276400D03*
D21*
X154939500Y-101276400D03*
D20*
X155702000Y-101276400D03*
D21*
X152652000Y-100513900D03*
X154177000Y-100513900D03*
X155702000Y-100513900D03*
D20*
X152652000Y-99751400D03*
D21*
X153414500Y-99751400D03*
D20*
X154177000Y-99751400D03*
D21*
X154939500Y-99751400D03*
D20*
X155702000Y-99751400D03*
G04 #@! TD*
D15*
G04 #@! TO.P,J8,1,Pin_1*
G04 #@! TO.N,RX*
X151790400Y-89662000D03*
G04 #@! TD*
D23*
G04 #@! TO.P,C1,1*
G04 #@! TO.N,GNDREF*
X156066300Y-112471200D03*
G04 #@! TO.P,C1,2*
G04 #@! TO.N,+3.3V*
X154931300Y-112471200D03*
G04 #@! TD*
D24*
G04 #@! TO.P,J6,1,Pin_1*
G04 #@! TO.N,LED-G-Out*
X154330400Y-89408000D03*
G04 #@! TD*
D15*
G04 #@! TO.P,J7,1,Pin_1*
G04 #@! TO.N,TX*
X149402800Y-89662000D03*
G04 #@! TD*
D25*
G04 #@! TO.P,J3,1,Pin_1*
G04 #@! TO.N,LED-B-Out*
X159105600Y-89408000D03*
G04 #@! TD*
D26*
G04 #@! TO.P,J1,3,MountPin*
G04 #@! TO.N,GNDREF*
X155576000Y-119890800D03*
D27*
G04 #@! TO.P,J1,2*
X150876000Y-122890800D03*
D28*
G04 #@! TO.P,J1,1*
G04 #@! TO.N,+12V*
X150876000Y-116890800D03*
G04 #@! TD*
D15*
G04 #@! TO.P,J9,1,Pin_1*
G04 #@! TO.N,GNDREF*
X158851600Y-120700800D03*
G04 #@! TD*
D14*
G04 #@! TO.P,R7,1*
G04 #@! TO.N,+3.3V*
X152552400Y-112437800D03*
G04 #@! TO.P,R7,2*
G04 #@! TO.N,EN*
X152552400Y-111242800D03*
G04 #@! TD*
G04 #@! TO.P,R3,1*
G04 #@! TO.N,LED-G*
X156108400Y-90005500D03*
G04 #@! TO.P,R3,2*
G04 #@! TO.N,Net-(Q2-G)*
X156108400Y-88810500D03*
G04 #@! TD*
G04 #@! TO.P,R2,1*
G04 #@! TO.N,Net-(Q1-G)*
X160731200Y-86754300D03*
G04 #@! TO.P,R2,2*
G04 #@! TO.N,GNDREF*
X160731200Y-85559300D03*
G04 #@! TD*
G04 #@! TO.P,R1,1*
G04 #@! TO.N,LED-R*
X157175200Y-90005500D03*
G04 #@! TO.P,R1,2*
G04 #@! TO.N,Net-(Q1-G)*
X157175200Y-88810500D03*
G04 #@! TD*
D29*
G04 #@! TO.P,C4,1*
G04 #@! TO.N,GNDREF*
X156362400Y-124857700D03*
G04 #@! TO.P,C4,2*
G04 #@! TO.N,+12V*
X156362400Y-125992700D03*
G04 #@! TD*
D17*
G04 #@! TO.P,R8,1*
G04 #@! TO.N,+3.3V*
X163334100Y-89204800D03*
G04 #@! TO.P,R8,2*
G04 #@! TO.N,IO0*
X164529100Y-89204800D03*
G04 #@! TD*
D30*
G04 #@! TO.P,D1,1,K*
G04 #@! TO.N,GNDREF*
X157175200Y-112434100D03*
G04 #@! TO.P,D1,2,A*
G04 #@! TO.N,Net-(D1-A)*
X157175200Y-111289100D03*
G04 #@! TD*
D14*
G04 #@! TO.P,R6,1*
G04 #@! TO.N,Net-(Q3-G)*
X160985200Y-90005500D03*
G04 #@! TO.P,R6,2*
G04 #@! TO.N,GNDREF*
X160985200Y-88810500D03*
G04 #@! TD*
D24*
G04 #@! TO.P,J4,1,Pin_1*
G04 #@! TO.N,LED-R-Out*
X155295600Y-87020400D03*
G04 #@! TD*
D15*
G04 #@! TO.P,J10,1,Pin_1*
G04 #@! TO.N,+3.3V*
X167335200Y-125526800D03*
G04 #@! TD*
D31*
G04 #@! TO.P,C3,1*
G04 #@! TO.N,GNDREF*
X163364100Y-90220800D03*
G04 #@! TO.P,C3,2*
G04 #@! TO.N,IO0*
X164499100Y-90220800D03*
G04 #@! TD*
D32*
G04 #@! TO.P,C2,2*
G04 #@! TO.N,EN*
X158292800Y-111302800D03*
G04 #@! TO.P,C2,1*
G04 #@! TO.N,GNDREF*
X158292800Y-112437800D03*
G04 #@! TD*
D16*
G04 #@! TO.P,Q1,1,G*
G04 #@! TO.N,Net-(Q1-G)*
X159202600Y-87513200D03*
G04 #@! TO.P,Q1,2,S*
G04 #@! TO.N,GNDREF*
X159202600Y-85613200D03*
G04 #@! TO.P,Q1,3,D*
G04 #@! TO.N,LED-R-Out*
X157327600Y-86563200D03*
G04 #@! TD*
D25*
G04 #@! TO.P,J2,1,Pin_1*
G04 #@! TO.N,+12V*
X143814800Y-127558800D03*
G04 #@! TD*
D33*
G04 #@! TO.N,GNDREF*
X158242000Y-93195902D03*
G04 #@! TO.N,+5V*
X161899600Y-93319600D03*
G04 #@! TO.N,GNDREF*
X163423600Y-90220800D03*
X160985200Y-88810500D03*
X160731200Y-85236000D03*
X156413200Y-85648800D03*
X167030400Y-85750400D03*
X149148800Y-85648800D03*
X147777200Y-85648800D03*
X146507200Y-85648800D03*
X159664400Y-85598000D03*
X164642800Y-85699600D03*
X153517600Y-85445600D03*
G04 #@! TO.N,RGB-6*
X160807000Y-110185200D03*
G04 #@! TO.N,RGB-7*
X159461200Y-110185200D03*
G04 #@! TO.N,RGB-5*
X162052000Y-110185200D03*
G04 #@! TO.N,RGB-4*
X163322000Y-110236000D03*
G04 #@! TO.N,RGB-3*
X165676601Y-105290599D03*
G04 #@! TO.N,RGB-8*
X158292800Y-110236000D03*
G04 #@! TO.N,Sensor_VN*
X151101003Y-111758800D03*
G04 #@! TO.N,Sensor_VP*
X150101500Y-111758800D03*
G04 #@! TO.N,RGB-2*
X165557200Y-96146400D03*
G04 #@! TO.N,RGB-1*
X165557200Y-94876400D03*
G04 #@! TD*
D34*
G04 #@! TO.N,+3.3V*
X167335200Y-125526800D02*
X159130700Y-125526800D01*
X159130700Y-125526800D02*
X159079900Y-125577600D01*
G04 #@! TO.N,GNDREF*
X163423600Y-90220800D02*
X163306706Y-90220800D01*
G04 #@! TO.N,Net-(Q2-G)*
X153157400Y-87614800D02*
X153986900Y-86785300D01*
X154748900Y-85585900D02*
X154748900Y-85445600D01*
X153986900Y-86785300D02*
X153986900Y-86347900D01*
X153986900Y-86347900D02*
X154748900Y-85585900D01*
X156108400Y-88810500D02*
X155486700Y-88188800D01*
X155486700Y-88188800D02*
X153731400Y-88188800D01*
X153731400Y-88188800D02*
X153157400Y-87614800D01*
G04 #@! TO.N,LED-B-Out*
X162306000Y-86664800D02*
X161899600Y-86664800D01*
X161899600Y-86664800D02*
X159156400Y-89408000D01*
X159156400Y-89408000D02*
X159105600Y-89408000D01*
G04 #@! TO.N,Net-(Q1-G)*
X160731200Y-86754300D02*
X159961500Y-86754300D01*
X159961500Y-86754300D02*
X159202600Y-87513200D01*
G04 #@! TO.N,GNDREF*
X153517600Y-85445600D02*
X153426600Y-85445600D01*
X153426600Y-85445600D02*
X153157400Y-85714800D01*
X156413200Y-85648800D02*
X155943900Y-85648800D01*
X159664400Y-85598000D02*
X159217800Y-85598000D01*
X159217800Y-85598000D02*
X159202600Y-85613200D01*
X167030400Y-85750400D02*
X167030400Y-85795600D01*
X164196200Y-85699600D02*
X164181000Y-85714800D01*
G04 #@! TO.N,EN*
X149377000Y-112483300D02*
X149377000Y-109346400D01*
G04 #@! TO.N,GNDREF*
X167030400Y-85744800D02*
X167081200Y-85795600D01*
X167030400Y-85750400D02*
X167030400Y-85744800D01*
X167036000Y-85750400D02*
X167030400Y-85750400D01*
X146837000Y-92126200D02*
X146837000Y-91846400D01*
X146633800Y-91643200D02*
X146633800Y-92074600D01*
X146633800Y-92074600D02*
X146761200Y-92202000D01*
X146761200Y-92202000D02*
X146837000Y-92126200D01*
X149352000Y-85445600D02*
X149148800Y-85648800D01*
X146507200Y-85648800D02*
X146405600Y-85547200D01*
X146405600Y-85547200D02*
X146405600Y-85496400D01*
G04 #@! TO.N,RX*
X151917000Y-91846400D02*
X151917000Y-89788600D01*
X151917000Y-89788600D02*
X151790400Y-89662000D01*
G04 #@! TO.N,TX*
X150647000Y-91846400D02*
X150647000Y-90906200D01*
X150647000Y-90906200D02*
X149402800Y-89662000D01*
G04 #@! TO.N,LED-B*
X161569000Y-90691700D02*
X157571700Y-90691700D01*
X157571700Y-90691700D02*
X156997000Y-91266400D01*
X156997000Y-91266400D02*
X156997000Y-91846400D01*
G04 #@! TO.N,LED-G*
X156108400Y-90005500D02*
X155479300Y-90634600D01*
X155479300Y-90634600D02*
X153398800Y-90634600D01*
X153398800Y-90634600D02*
X153187000Y-90846400D01*
X153187000Y-90846400D02*
X153187000Y-91846400D01*
G04 #@! TO.N,LED-R*
X157175200Y-90005500D02*
X155727000Y-91453700D01*
X155727000Y-91453700D02*
X155727000Y-91846400D01*
G04 #@! TO.N,LED-G-Out*
X151282400Y-86664800D02*
X151282400Y-87149051D01*
X151282400Y-87149051D02*
X153642949Y-89509600D01*
X153642949Y-89509600D02*
X154330400Y-89509600D01*
G04 #@! TO.N,GNDREF*
X157175200Y-112434100D02*
X156103400Y-112434100D01*
X156103400Y-112434100D02*
X156066300Y-112471200D01*
X157175200Y-112434100D02*
X158289100Y-112434100D01*
X158289100Y-112434100D02*
X158292800Y-112437800D01*
G04 #@! TO.N,EN*
X158292800Y-111302800D02*
X160324800Y-111302800D01*
X160324800Y-111302800D02*
X161442400Y-112420400D01*
X152552400Y-111242800D02*
X153234900Y-110560300D01*
X153234900Y-110560300D02*
X157514794Y-110560300D01*
X157514794Y-110560300D02*
X158257294Y-111302800D01*
X158257294Y-111302800D02*
X158292800Y-111302800D01*
G04 #@! TO.N,Net-(D1-A)*
X153822400Y-111242800D02*
X153868700Y-111289100D01*
X153868700Y-111289100D02*
X157175200Y-111289100D01*
G04 #@! TO.N,+3.3V*
X153822400Y-112437800D02*
X154897900Y-112437800D01*
X154897900Y-112437800D02*
X154931300Y-112471200D01*
G04 #@! TO.N,GNDREF*
X156358700Y-112434100D02*
X156362400Y-112437800D01*
G04 #@! TO.N,+3.3V*
X152552400Y-112437800D02*
X152056900Y-112933300D01*
X148107000Y-111849696D02*
X148107000Y-109346400D01*
X152056900Y-112933300D02*
X149190604Y-112933300D01*
X149190604Y-112933300D02*
X148107000Y-111849696D01*
X152552400Y-112437800D02*
X153822400Y-112437800D01*
G04 #@! TO.N,EN*
X152552400Y-111242800D02*
X152552400Y-111353600D01*
X152552400Y-111353600D02*
X151422700Y-112483300D01*
X151422700Y-112483300D02*
X149377000Y-112483300D01*
G04 #@! TO.N,RGB-4*
X163322000Y-110236000D02*
X163322000Y-109371400D01*
X163322000Y-109371400D02*
X163347000Y-109346400D01*
G04 #@! TO.N,RGB-5*
X162052000Y-110185200D02*
X162052000Y-109371400D01*
X162052000Y-109371400D02*
X162077000Y-109346400D01*
D35*
G04 #@! TO.N,Sensor_VP*
X150647000Y-109346400D02*
X150647000Y-111213300D01*
X150647000Y-111213300D02*
X150101500Y-111758800D01*
G04 #@! TO.N,Sensor_VN*
X151101003Y-111758800D02*
X151917000Y-110942803D01*
X151917000Y-110942803D02*
X151917000Y-109346400D01*
D34*
G04 #@! TO.N,RGB-6*
X160807000Y-109346400D02*
X160807000Y-110414317D01*
G04 #@! TO.N,GNDREF*
X164597000Y-106306400D02*
X164597000Y-106329400D01*
G04 #@! TO.N,RGB-3*
X165422402Y-105036400D02*
X165676601Y-105290599D01*
X164597000Y-105036400D02*
X165422402Y-105036400D01*
G04 #@! TO.N,RGB-2*
X165557200Y-96146400D02*
X164597000Y-96146400D01*
G04 #@! TO.N,RGB-1*
X165557200Y-94876400D02*
X164597000Y-94876400D01*
G04 #@! TO.N,SDI{slash}SD1*
X167081200Y-95758000D02*
X165422800Y-97416400D01*
X165422800Y-97416400D02*
X164597000Y-97416400D01*
G04 #@! TO.N,SDO{slash}SD0*
X167081200Y-97840800D02*
X166235600Y-98686400D01*
X166235600Y-98686400D02*
X164597000Y-98686400D01*
G04 #@! TO.N,SCK{slash}SD3*
X167081200Y-99974400D02*
X164615000Y-99974400D01*
X164615000Y-99974400D02*
X164597000Y-99956400D01*
G04 #@! TO.N,SCS{slash}CMD*
X167081200Y-102108000D02*
X166199600Y-101226400D01*
X166199600Y-101226400D02*
X164597000Y-101226400D01*
G04 #@! TO.N,SWP{slash}SD3*
X167081200Y-104241600D02*
X165336000Y-102496400D01*
X165336000Y-102496400D02*
X164597000Y-102496400D01*
G04 #@! TO.N,SHD{slash}SD2*
X167081200Y-106375200D02*
X167081200Y-105670600D01*
X167081200Y-105670600D02*
X165177000Y-103766400D01*
X165177000Y-103766400D02*
X164597000Y-103766400D01*
G04 #@! TO.N,+3.3V*
X168503600Y-106463200D02*
X168503600Y-108000800D01*
X168503600Y-108000800D02*
X168503600Y-123088400D01*
X168484400Y-108020000D02*
X168503600Y-108000800D01*
X163955000Y-108020000D02*
X168484400Y-108020000D01*
X163334100Y-89204800D02*
X163979100Y-88559800D01*
X163979100Y-88559800D02*
X165142800Y-88559800D01*
X168498400Y-91915400D02*
X168498400Y-106458000D01*
X168498400Y-106458000D02*
X168503600Y-106463200D01*
X165142800Y-88559800D02*
X168498400Y-91915400D01*
X168503600Y-123088400D02*
X167335200Y-124256800D01*
X167335200Y-124256800D02*
X167335200Y-125526800D01*
G04 #@! TO.N,GNDREF*
X163364100Y-90220800D02*
X163423600Y-90220800D01*
G04 #@! TO.N,IO0*
X163347000Y-91846400D02*
X164592000Y-91846400D01*
X164592000Y-91846400D02*
X165169800Y-91846400D01*
X164499100Y-90220800D02*
X164499100Y-91753500D01*
X164499100Y-91753500D02*
X164592000Y-91846400D01*
X164529100Y-89204800D02*
X164529100Y-90190800D01*
X164529100Y-90190800D02*
X164499100Y-90220800D01*
G04 #@! TO.N,GNDREF*
X161442400Y-120294400D02*
X161036000Y-120700800D01*
G04 #@! TO.N,+12V*
X156362400Y-127863600D02*
X147929600Y-127863600D01*
X147878800Y-127812800D02*
X147878800Y-119888000D01*
X147929600Y-127863600D02*
X147878800Y-127812800D01*
X147878800Y-119888000D02*
X150876000Y-116890800D01*
X156362400Y-127863600D02*
X156413200Y-127914400D01*
X156362400Y-125992700D02*
X156362400Y-127863600D01*
X156450000Y-127877600D02*
X158292400Y-127877600D01*
X156413200Y-127914400D02*
X156450000Y-127877600D01*
G04 #@! TO.N,IO0*
X165169800Y-91846400D02*
X166993000Y-93669600D01*
G04 #@! TO.N,GNDREF*
X167051200Y-85765600D02*
X167036000Y-85750400D01*
G04 #@! TO.N,+3.3V*
X148107000Y-108346400D02*
X148107000Y-109346400D01*
X148433400Y-108020000D02*
X148107000Y-108346400D01*
X163955000Y-108020000D02*
X148433400Y-108020000D01*
G04 #@! TO.N,GNDREF*
X158842500Y-122419300D02*
X158851200Y-122428000D01*
X158851200Y-120701200D02*
X158851600Y-120700800D01*
X151144300Y-122622500D02*
X150876000Y-122890800D01*
X158851200Y-123226800D02*
X158851200Y-122428000D01*
G04 #@! TO.N,LED-B*
X161569000Y-90691700D02*
X162153600Y-90107100D01*
G04 #@! TO.N,LED-R-Out*
X155854400Y-86563200D02*
X155194000Y-87223600D01*
X157327600Y-86563200D02*
X155854400Y-86563200D01*
G04 #@! TO.N,Net-(Q1-G)*
X157175200Y-88810500D02*
X158472500Y-87513200D01*
X158472500Y-87513200D02*
X159202600Y-87513200D01*
G04 #@! TO.N,Net-(Q3-G)*
X162153600Y-88912100D02*
X162153600Y-88869345D01*
X163408145Y-87614800D02*
X164181000Y-87614800D01*
X160985200Y-90056300D02*
X161009400Y-90056300D01*
X162153600Y-88869345D02*
X163408145Y-87614800D01*
X161009400Y-90056300D02*
X162153600Y-88912100D01*
G04 #@! TD*
G04 #@! TA.AperFunction,Conductor*
G04 #@! TO.N,+12V*
G36*
X153099789Y-114756237D02*
G01*
X153145877Y-114801213D01*
X153163194Y-114863239D01*
X153211600Y-119915212D01*
X153195387Y-119977713D01*
X153149949Y-120023589D01*
X153087606Y-120040400D01*
X149047199Y-120040400D01*
X148539200Y-120548399D01*
X148539200Y-120548400D01*
X148539200Y-126085600D01*
X156898800Y-126085600D01*
X156960800Y-126102213D01*
X157006187Y-126147600D01*
X157022800Y-126209600D01*
X157022800Y-126694638D01*
X157013361Y-126742091D01*
X156986481Y-126782319D01*
X156870399Y-126898399D01*
X156870400Y-126898400D01*
X159286400Y-126898400D01*
X159348400Y-126915013D01*
X159393787Y-126960400D01*
X159410400Y-127022400D01*
X159410400Y-129162000D01*
X159393787Y-129224000D01*
X159348400Y-129269387D01*
X159286400Y-129286000D01*
X141908453Y-129286000D01*
X141845979Y-129269112D01*
X141800523Y-129223049D01*
X141784464Y-129160358D01*
X141831982Y-125573264D01*
X141849092Y-125512035D01*
X141894298Y-125467333D01*
X141955713Y-125450908D01*
X145676348Y-125443252D01*
X145694274Y-117202577D01*
X145705991Y-117150232D01*
X145738719Y-117107732D01*
X148454670Y-114836210D01*
X148491036Y-114815093D01*
X148532370Y-114807346D01*
X153037359Y-114740441D01*
X153099789Y-114756237D01*
G37*
G04 #@! TD.AperFunction*
G04 #@! TD*
G04 #@! TA.AperFunction,Conductor*
G04 #@! TO.N,+3.3V*
G36*
X168296491Y-119541839D02*
G01*
X168336719Y-119568719D01*
X168619681Y-119851681D01*
X168646561Y-119891909D01*
X168656000Y-119939362D01*
X168656000Y-129162852D01*
X168639529Y-129224605D01*
X168594493Y-129269953D01*
X168532855Y-129286849D01*
X161341862Y-129336442D01*
X161293950Y-129327169D01*
X161253326Y-129300126D01*
X160513519Y-128560319D01*
X160486639Y-128520091D01*
X160477200Y-128472638D01*
X160477200Y-127050801D01*
X160477200Y-127050800D01*
X160383946Y-126966871D01*
X160353626Y-126925153D01*
X160342900Y-126874705D01*
X160342900Y-126607851D01*
X160331267Y-126549369D01*
X160286952Y-126483047D01*
X160220630Y-126438732D01*
X160162149Y-126427100D01*
X160162148Y-126427100D01*
X157822652Y-126427100D01*
X157822651Y-126427100D01*
X157764169Y-126438732D01*
X157697848Y-126483047D01*
X157660802Y-126538491D01*
X157616153Y-126578958D01*
X157557700Y-126593600D01*
X157553200Y-126593600D01*
X157491200Y-126576987D01*
X157445813Y-126531600D01*
X157429200Y-126469600D01*
X157429200Y-124678866D01*
X157445010Y-124618277D01*
X157488410Y-124573139D01*
X157548331Y-124554962D01*
X157609494Y-124568381D01*
X157656302Y-124609975D01*
X157697847Y-124672152D01*
X157764169Y-124716467D01*
X157822651Y-124728100D01*
X157822652Y-124728100D01*
X160162148Y-124728100D01*
X160162149Y-124728100D01*
X160191389Y-124722283D01*
X160220631Y-124716467D01*
X160286952Y-124672152D01*
X160331267Y-124605831D01*
X160338716Y-124568381D01*
X160342900Y-124547349D01*
X160342900Y-124494709D01*
X160358910Y-124433764D01*
X160402807Y-124388558D01*
X160463254Y-124370763D01*
X160883600Y-124358400D01*
X163220400Y-122885200D01*
X163220400Y-119888562D01*
X163229839Y-119841109D01*
X163256719Y-119800881D01*
X163488881Y-119568719D01*
X163529109Y-119541839D01*
X163576562Y-119532400D01*
X168249038Y-119532400D01*
X168296491Y-119541839D01*
G37*
G04 #@! TD.AperFunction*
G04 #@! TD*
G04 #@! TA.AperFunction,Conductor*
G04 #@! TO.N,GNDREF*
G36*
X153911839Y-84969932D02*
G01*
X153957440Y-85015314D01*
X153974164Y-85077436D01*
X153974556Y-85775615D01*
X153958133Y-85837354D01*
X153913155Y-85882724D01*
X153851561Y-85899681D01*
X147199250Y-85953599D01*
X147199249Y-85953600D01*
X147181097Y-93471999D01*
X147181097Y-93472000D01*
X161221559Y-93452297D01*
X161269078Y-93461692D01*
X161309373Y-93488574D01*
X161336294Y-93528844D01*
X161375063Y-93622441D01*
X161471317Y-93747882D01*
X161596759Y-93844136D01*
X161742838Y-93904644D01*
X161899600Y-93925282D01*
X162056362Y-93904644D01*
X162202441Y-93844136D01*
X162327882Y-93747882D01*
X162424136Y-93622441D01*
X162463693Y-93526940D01*
X162490533Y-93486752D01*
X162530695Y-93459875D01*
X162578073Y-93450393D01*
X163251447Y-93449448D01*
X163313369Y-93465916D01*
X163358804Y-93511097D01*
X163375619Y-93572927D01*
X163429007Y-106273599D01*
X163429007Y-106273600D01*
X165585819Y-106197887D01*
X165648321Y-106212292D01*
X165695264Y-106256001D01*
X165714088Y-106317317D01*
X165744674Y-107160757D01*
X165729717Y-107224440D01*
X165684435Y-107271650D01*
X165621431Y-107289249D01*
X147330300Y-107389023D01*
X147330300Y-107389024D01*
X147339695Y-113358239D01*
X154962007Y-113347907D01*
X156094585Y-112378258D01*
X156133355Y-112355738D01*
X156177600Y-112348478D01*
X159195282Y-112406413D01*
X159256833Y-112424142D01*
X159301325Y-112470224D01*
X159316884Y-112532361D01*
X159287716Y-114366777D01*
X159275186Y-114419156D01*
X159241632Y-114461282D01*
X159193383Y-114485209D01*
X159156161Y-114486048D01*
X159156161Y-114487300D01*
X158254451Y-114487300D01*
X158195969Y-114498932D01*
X158129647Y-114543247D01*
X158085332Y-114609569D01*
X158073700Y-114668051D01*
X158073700Y-115557549D01*
X158085332Y-115616030D01*
X158129647Y-115682352D01*
X158195969Y-115726667D01*
X158254451Y-115738300D01*
X159139923Y-115738300D01*
X159202491Y-115755243D01*
X159247961Y-115801442D01*
X159263907Y-115864271D01*
X159253817Y-116498871D01*
X159236557Y-116560035D01*
X159191263Y-116604614D01*
X159129833Y-116620900D01*
X158254451Y-116620900D01*
X158195969Y-116632532D01*
X158129647Y-116676847D01*
X158085332Y-116743169D01*
X158073700Y-116801651D01*
X158073700Y-117691149D01*
X158085332Y-117749630D01*
X158129647Y-117815952D01*
X158195969Y-117860267D01*
X158254451Y-117871900D01*
X159105999Y-117871900D01*
X159168567Y-117888843D01*
X159214037Y-117935042D01*
X159229983Y-117997871D01*
X159207199Y-119430799D01*
X159207200Y-119430800D01*
X162690000Y-119430800D01*
X162752000Y-119447413D01*
X162797387Y-119492800D01*
X162814000Y-119554800D01*
X162814000Y-122207142D01*
X162798555Y-122267073D01*
X162756069Y-122312075D01*
X160101159Y-123983684D01*
X160034923Y-124002751D01*
X156464000Y-123997956D01*
X156464000Y-124894800D01*
X156447387Y-124956800D01*
X156402000Y-125002187D01*
X156340000Y-125018800D01*
X149425200Y-125018800D01*
X149363200Y-125002187D01*
X149317813Y-124956800D01*
X149301200Y-124894800D01*
X149301200Y-120918175D01*
X149317545Y-120856642D01*
X149362270Y-120811330D01*
X149423582Y-120794186D01*
X153649942Y-120739119D01*
X153704910Y-114286059D01*
X153704908Y-114286059D01*
X153704909Y-114286058D01*
X145768314Y-114331732D01*
X145706012Y-114315358D01*
X145660332Y-114269940D01*
X145643600Y-114207734D01*
X145643600Y-85111875D01*
X145660125Y-85050027D01*
X145705296Y-85004664D01*
X145767073Y-84987876D01*
X146832725Y-84983344D01*
X153849637Y-84953507D01*
X153911839Y-84969932D01*
G37*
G04 #@! TD.AperFunction*
G04 #@! TD*
M02*
