G04 #@! TF.GenerationSoftware,KiCad,Pcbnew,7.0.1-0*
G04 #@! TF.CreationDate,2025-03-17T17:28:37+01:00*
G04 #@! TF.ProjectId,LED-Controller,4c45442d-436f-46e7-9472-6f6c6c65722e,rev?*
G04 #@! TF.SameCoordinates,Original*
G04 #@! TF.FileFunction,Legend,Bot*
G04 #@! TF.FilePolarity,Positive*
%FSLAX46Y46*%
G04 Gerber Fmt 4.6, Leading zero omitted, Abs format (unit mm)*
G04 Created by KiCad (PCBNEW 7.0.1-0) date 2025-03-17 17:28:37*
%MOMM*%
%LPD*%
G01*
G04 APERTURE LIST*
%ADD10C,0.150000*%
%ADD11C,0.120000*%
G04 APERTURE END LIST*
D10*
G04 #@! TO.C,U4*
X158547104Y-129706619D02*
X158547104Y-130516142D01*
X158547104Y-130516142D02*
X158499485Y-130611380D01*
X158499485Y-130611380D02*
X158451866Y-130659000D01*
X158451866Y-130659000D02*
X158356628Y-130706619D01*
X158356628Y-130706619D02*
X158166152Y-130706619D01*
X158166152Y-130706619D02*
X158070914Y-130659000D01*
X158070914Y-130659000D02*
X158023295Y-130611380D01*
X158023295Y-130611380D02*
X157975676Y-130516142D01*
X157975676Y-130516142D02*
X157975676Y-129706619D01*
X157070914Y-130039952D02*
X157070914Y-130706619D01*
X157309009Y-129659000D02*
X157547104Y-130373285D01*
X157547104Y-130373285D02*
X156928057Y-130373285D01*
G04 #@! TO.C,U3*
X156006704Y-90817019D02*
X156006704Y-91626542D01*
X156006704Y-91626542D02*
X155959085Y-91721780D01*
X155959085Y-91721780D02*
X155911466Y-91769400D01*
X155911466Y-91769400D02*
X155816228Y-91817019D01*
X155816228Y-91817019D02*
X155625752Y-91817019D01*
X155625752Y-91817019D02*
X155530514Y-91769400D01*
X155530514Y-91769400D02*
X155482895Y-91721780D01*
X155482895Y-91721780D02*
X155435276Y-91626542D01*
X155435276Y-91626542D02*
X155435276Y-90817019D01*
X155054323Y-90817019D02*
X154435276Y-90817019D01*
X154435276Y-90817019D02*
X154768609Y-91197971D01*
X154768609Y-91197971D02*
X154625752Y-91197971D01*
X154625752Y-91197971D02*
X154530514Y-91245590D01*
X154530514Y-91245590D02*
X154482895Y-91293209D01*
X154482895Y-91293209D02*
X154435276Y-91388447D01*
X154435276Y-91388447D02*
X154435276Y-91626542D01*
X154435276Y-91626542D02*
X154482895Y-91721780D01*
X154482895Y-91721780D02*
X154530514Y-91769400D01*
X154530514Y-91769400D02*
X154625752Y-91817019D01*
X154625752Y-91817019D02*
X154911466Y-91817019D01*
X154911466Y-91817019D02*
X155006704Y-91769400D01*
X155006704Y-91769400D02*
X155054323Y-91721780D01*
D11*
G04 #@! TO.C,U4*
X153685200Y-129154000D02*
X159695200Y-129154000D01*
X155935200Y-122334000D02*
X159695200Y-122334000D01*
X159695200Y-122334000D02*
X159695200Y-123594000D01*
X159695200Y-129154000D02*
X159695200Y-127894000D01*
G04 #@! TO.C,U3*
X151384800Y-105214400D02*
X151384800Y-104979400D01*
X151384800Y-92194400D02*
X151384800Y-92429400D01*
X155244800Y-105214400D02*
X151384800Y-105214400D01*
X155244800Y-105214400D02*
X159104800Y-105214400D01*
X155244800Y-92194400D02*
X151384800Y-92194400D01*
X155244800Y-92194400D02*
X159104800Y-92194400D01*
X159104800Y-105214400D02*
X159104800Y-104979400D01*
X159104800Y-92429400D02*
X160919800Y-92429400D01*
X159104800Y-92194400D02*
X159104800Y-92429400D01*
G04 #@! TD*
M02*
