G04 #@! TF.GenerationSoftware,KiCad,Pcbnew,7.0.1-0*
G04 #@! TF.CreationDate,2025-03-17T17:28:37+01:00*
G04 #@! TF.ProjectId,LED-Controller,4c45442d-436f-46e7-9472-6f6c6c65722e,rev?*
G04 #@! TF.SameCoordinates,Original*
G04 #@! TF.FileFunction,Paste,Top*
G04 #@! TF.FilePolarity,Positive*
%FSLAX46Y46*%
G04 Gerber Fmt 4.6, Leading zero omitted, Abs format (unit mm)*
G04 Created by KiCad (PCBNEW 7.0.1-0) date 2025-03-17 17:28:37*
%MOMM*%
%LPD*%
G01*
G04 APERTURE LIST*
G04 Aperture macros list*
%AMRoundRect*
0 Rectangle with rounded corners*
0 $1 Rounding radius*
0 $2 $3 $4 $5 $6 $7 $8 $9 X,Y pos of 4 corners*
0 Add a 4 corners polygon primitive as box body*
4,1,4,$2,$3,$4,$5,$6,$7,$8,$9,$2,$3,0*
0 Add four circle primitives for the rounded corners*
1,1,$1+$1,$2,$3*
1,1,$1+$1,$4,$5*
1,1,$1+$1,$6,$7*
1,1,$1+$1,$8,$9*
0 Add four rect primitives between the rounded corners*
20,1,$1+$1,$2,$3,$4,$5,0*
20,1,$1+$1,$4,$5,$6,$7,0*
20,1,$1+$1,$6,$7,$8,$9,0*
20,1,$1+$1,$8,$9,$2,$3,0*%
%AMFreePoly0*
4,1,9,5.362500,-0.866500,1.237500,-0.866500,1.237500,-0.450000,-1.237500,-0.450000,-1.237500,0.450000,1.237500,0.450000,1.237500,0.866500,5.362500,0.866500,5.362500,-0.866500,5.362500,-0.866500,$1*%
G04 Aperture macros list end*
%ADD10R,2.300000X0.900000*%
%ADD11FreePoly0,0.000000*%
%ADD12RoundRect,0.381000X0.762000X0.381000X-0.762000X0.381000X-0.762000X-0.381000X0.762000X-0.381000X0*%
%ADD13RoundRect,0.381000X-0.762000X-0.381000X0.762000X-0.381000X0.762000X0.381000X-0.762000X0.381000X0*%
%ADD14RoundRect,0.160000X0.160000X-0.197500X0.160000X0.197500X-0.160000X0.197500X-0.160000X-0.197500X0*%
%ADD15RoundRect,0.150000X0.587500X0.150000X-0.587500X0.150000X-0.587500X-0.150000X0.587500X-0.150000X0*%
%ADD16RoundRect,0.160000X-0.197500X-0.160000X0.197500X-0.160000X0.197500X0.160000X-0.197500X0.160000X0*%
%ADD17R,0.900000X1.500000*%
%ADD18R,1.500000X0.900000*%
%ADD19R,1.050000X1.050000*%
%ADD20RoundRect,0.155000X0.212500X0.155000X-0.212500X0.155000X-0.212500X-0.155000X0.212500X-0.155000X0*%
%ADD21RoundRect,0.155000X-0.155000X0.212500X-0.155000X-0.212500X0.155000X-0.212500X0.155000X0.212500X0*%
%ADD22RoundRect,0.160000X0.160000X-0.222500X0.160000X0.222500X-0.160000X0.222500X-0.160000X-0.222500X0*%
%ADD23RoundRect,0.155000X-0.212500X-0.155000X0.212500X-0.155000X0.212500X0.155000X-0.212500X0.155000X0*%
%ADD24RoundRect,0.155000X0.155000X-0.212500X0.155000X0.212500X-0.155000X0.212500X-0.155000X-0.212500X0*%
G04 APERTURE END LIST*
D10*
G04 #@! TO.C,U2*
X158992400Y-124077600D03*
D11*
X159079900Y-125577600D03*
D10*
X158992400Y-127077600D03*
G04 #@! TD*
D12*
G04 #@! TO.C,SW1*
X161442400Y-120294400D03*
X161442400Y-112420400D03*
G04 #@! TD*
D13*
G04 #@! TO.C,SW2*
X167030400Y-85795600D03*
X167030400Y-93669600D03*
G04 #@! TD*
D14*
G04 #@! TO.C,R5*
X162153600Y-90157900D03*
X162153600Y-88962900D03*
G04 #@! TD*
D15*
G04 #@! TO.C,Q3*
X162306000Y-86664800D03*
X164181000Y-85714800D03*
X164181000Y-87614800D03*
G04 #@! TD*
G04 #@! TO.C,Q2*
X153157400Y-87614800D03*
X153157400Y-85714800D03*
X151282400Y-86664800D03*
G04 #@! TD*
D14*
G04 #@! TO.C,R9*
X153822400Y-112437800D03*
X153822400Y-111242800D03*
G04 #@! TD*
D16*
G04 #@! TO.C,R4*
X154748900Y-85445600D03*
X155943900Y-85445600D03*
G04 #@! TD*
D17*
G04 #@! TO.C,U1*
X146837000Y-109346400D03*
X148107000Y-109346400D03*
X149377000Y-109346400D03*
X150647000Y-109346400D03*
X151917000Y-109346400D03*
X153187000Y-109346400D03*
X154457000Y-109346400D03*
X155727000Y-109346400D03*
X156997000Y-109346400D03*
X158267000Y-109346400D03*
X159537000Y-109346400D03*
X160807000Y-109346400D03*
X162077000Y-109346400D03*
X163347000Y-109346400D03*
D18*
X164597000Y-106306400D03*
X164597000Y-105036400D03*
X164597000Y-103766400D03*
X164597000Y-102496400D03*
X164597000Y-101226400D03*
X164597000Y-99956400D03*
X164597000Y-98686400D03*
X164597000Y-97416400D03*
X164597000Y-96146400D03*
X164597000Y-94876400D03*
D17*
X163347000Y-91846400D03*
X162077000Y-91846400D03*
X160807000Y-91846400D03*
X159537000Y-91846400D03*
X158267000Y-91846400D03*
X156997000Y-91846400D03*
X155727000Y-91846400D03*
X154457000Y-91846400D03*
X153187000Y-91846400D03*
X151917000Y-91846400D03*
X150647000Y-91846400D03*
X149377000Y-91846400D03*
X148107000Y-91846400D03*
X146837000Y-91846400D03*
D19*
X152652000Y-102801400D03*
X154177000Y-102801400D03*
X155702000Y-102801400D03*
X152652000Y-101276400D03*
X154177000Y-101276400D03*
X155702000Y-101276400D03*
X152652000Y-99751400D03*
X154177000Y-99751400D03*
X155702000Y-99751400D03*
G04 #@! TD*
D20*
G04 #@! TO.C,C1*
X156066300Y-112471200D03*
X154931300Y-112471200D03*
G04 #@! TD*
D14*
G04 #@! TO.C,R7*
X152552400Y-112437800D03*
X152552400Y-111242800D03*
G04 #@! TD*
G04 #@! TO.C,R3*
X156108400Y-90005500D03*
X156108400Y-88810500D03*
G04 #@! TD*
G04 #@! TO.C,R2*
X160731200Y-86754300D03*
X160731200Y-85559300D03*
G04 #@! TD*
G04 #@! TO.C,R1*
X157175200Y-90005500D03*
X157175200Y-88810500D03*
G04 #@! TD*
D21*
G04 #@! TO.C,C4*
X156362400Y-124857700D03*
X156362400Y-125992700D03*
G04 #@! TD*
D16*
G04 #@! TO.C,R8*
X163334100Y-89204800D03*
X164529100Y-89204800D03*
G04 #@! TD*
D22*
G04 #@! TO.C,D1*
X157175200Y-112434100D03*
X157175200Y-111289100D03*
G04 #@! TD*
D14*
G04 #@! TO.C,R6*
X160985200Y-90005500D03*
X160985200Y-88810500D03*
G04 #@! TD*
D23*
G04 #@! TO.C,C3*
X163364100Y-90220800D03*
X164499100Y-90220800D03*
G04 #@! TD*
D24*
G04 #@! TO.C,C2*
X158292800Y-111302800D03*
X158292800Y-112437800D03*
G04 #@! TD*
D15*
G04 #@! TO.C,Q1*
X159202600Y-87513200D03*
X159202600Y-85613200D03*
X157327600Y-86563200D03*
G04 #@! TD*
M02*
