M48
; DRILL file {KiCad 7.0.1-0} date 2025 March 18, Tuesday 14:06:25
; FORMAT={-:-/ absolute / inch / decimal}
; #@! TF.CreationDate,2025-03-18T14:06:25+01:00
; #@! TF.GenerationSoftware,Kicad,Pcbnew,7.0.1-0
; #@! TF.FileFunction,Plated,1,2,PTH
FMAT,2
INCH
; #@! TA.AperFunction,Plated,PTH,ComponentDrill
T1C0.0079
; #@! TA.AperFunction,Plated,PTH,ViaDrill
T2C0.0157
; #@! TA.AperFunction,Plated,PTH,ComponentDrill
T3C0.0197
; #@! TA.AperFunction,Plated,PTH,ComponentDrill
T4C0.0236
; #@! TA.AperFunction,Plated,PTH,ComponentDrill
T5C0.0394
%
G90
G05
T1
X6.0099Y-3.9572
X6.0099Y-4.0173
X6.0399Y-3.9272
X6.0399Y-3.9873
X6.0399Y-4.0473
X6.07Y-3.9572
X6.07Y-4.0173
X6.1Y-3.9272
X6.1Y-3.9873
X6.1Y-4.0473
X6.13Y-3.9572
X6.13Y-4.0173
T2
X5.768Y-3.372
X5.818Y-3.372
X5.872Y-3.372
X5.9095Y-4.4
X5.9489Y-4.4
X6.044Y-3.364
X6.158Y-3.372
X6.23Y-3.6691
X6.232Y-4.34
X6.278Y-4.338
X6.286Y-3.37
X6.328Y-3.3557
X6.331Y-4.338
X6.338Y-3.4965
X6.374Y-3.674
X6.38Y-4.338
X6.43Y-4.34
X6.434Y-3.552
X6.482Y-3.374
X6.518Y-3.7353
X6.518Y-3.7853
X6.5227Y-4.1453
X6.576Y-3.376
T3
X5.882Y-3.53
X5.976Y-3.53
X6.248Y-4.532
X6.248Y-4.616
X6.254Y-4.752
X6.48Y-4.476
X6.48Y-4.564
X6.48Y-4.654
X6.576Y-4.304
X6.578Y-3.77
X6.578Y-3.852
X6.578Y-3.936
X6.578Y-4.02
X6.578Y-4.104
X6.578Y-4.188
X6.578Y-4.39
X6.578Y-4.476
X6.58Y-4.564
X6.58Y-4.654
X6.588Y-4.942
T4
X5.662Y-5.022
X6.076Y-3.52
X6.114Y-3.426
X6.264Y-3.52
T5
G00X5.9006Y-4.602
M15
G01X5.9794Y-4.602
M16
G05
G00X5.9006Y-4.8382
M15
G01X5.9794Y-4.8382
M16
G05
G00X6.125Y-4.7595
M15
G01X6.125Y-4.6807
M16
G05
T0
M30
